<svg xmlns="http://www.w3.org/2000/svg" id="Layer_1" width="3.94cm" height="3.38cm" viewBox="0 0 111.73 95.84"><defs><style>.cls-1{fill:#231f20;}.cls-2{fill:none;stroke:#231f20;stroke-miterlimit:10;stroke-width:.25px;}</style></defs><polygon class="cls-2" points="80.61 4.36 29.95 4.36 4.62 48.23 29.95 92.1 80.61 92.1 105.94 48.23 80.61 4.36"></polygon><polygon class="cls-2" points="81.62 2.6 28.94 2.6 2.6 48.23 28.94 93.85 81.62 93.85 107.96 48.23 81.62 2.6"></polygon><circle class="cls-2" cx="55.23" cy="48.66" r="36.62"></circle><path class="cls-1" d="m29.43,57.77c0-5.41,3.85-9.62,8.97-9.62,1.35,0,3.12.68,3.85,1.4l.73-1.33h.88l.13,6.24h-.6c-.78-2.73-2.65-5.56-5.93-5.56-2.63,0-4.97,3.15-4.97,8.68,0,4.84,2.29,8.22,5.15,8.22,2.47,0,3.72-1.61,3.9-3.28v-1.59c0-.68-.18-1.27-.78-1.53-.57-.23-1.95-.39-2.37-.42v-.6h8.06v.6c-.47.08-1.25.16-1.69.36-.6.29-.73.78-.73,1.35v6.03l-.31.1-1.3-1.59c-1.4.62-3.69,1.38-5.67,1.38-3.48,0-7.33-3.09-7.33-8.87Z"></path><path class="cls-1" d="m49.11,61.51v-10.87c0-.58-.18-1-.73-1.31-.44-.24-1.33-.42-1.72-.45v-.58h7.59v.58c-.42.03-1.3.18-1.69.34-.6.21-.73.71-.73,1.29v10.37c0,1.89.6,4.49,4.21,4.49s4.55-2.81,4.55-4.54v-7.67c0-1.92-.29-3.15-.81-3.52-.55-.42-1.87-.74-2.39-.76v-.58h7.2v.58c-.44.03-1.74.29-2.26.63-.62.45-.78,1.86-.78,3.49v8.03c0,4.28-3.8,5.62-6.14,5.62-4.19,0-6.32-2.42-6.32-5.15Z"></path><path class="cls-1" d="m79.14,66.42l-10.4-14.78v9.58c0,2,.29,3.12.78,3.6.42.37,2.05.81,2.47.84v.58h-7.2v-.58c.42-.03,1.98-.5,2.24-.71.55-.45.78-1.55.78-3.6v-9.24c0-.76-.29-1.65-.75-2.07-.57-.5-1.87-1.13-2.52-1.16v-.58h5.04l9.7,13.79v-8.88c0-1.89-.29-3.18-.81-3.54-.44-.32-1.9-.76-2.42-.79v-.58h7.15v.58c-.42.03-1.85.39-2.21.66-.62.45-.78,1.79-.78,3.52v13.37h-1.07Z"></path><path class="cls-1" d="m36.76,29.82c1.98,0,4.26.75,5.67,1.38l1.3-1.59.31.1v6.03c0,.57.13,1.07.73,1.35.44.21,1.22.29,1.69.36v.6h-8.06v-.6c.42-.03,1.79-.18,2.37-.42.6-.26.78-.86.78-1.53v-1.59c-.18-1.66-1.43-3.28-3.9-3.28-2.86,0-5.15,3.38-5.15,8.22,0,5.54,2.34,8.68,4.97,8.68,3.28,0,5.15-2.83,5.93-5.56h.6l-.13,6.24h-.88l-.73-1.33c-.73.73-2.5,1.4-3.85,1.4-5.12,0-8.97-4.21-8.97-9.62,0-5.77,3.85-8.87,7.33-8.87Z"></path><path class="cls-1" d="m55.43,29.79c2.34,0,6.14,1.35,6.14,5.67v8.1c0,1.64.16,3.07.78,3.52.52.34,1.82.61,2.26.64v.58h-7.2v-.58c.52-.03,1.85-.34,2.39-.77.52-.37.81-1.62.81-3.55v-7.73c0-1.75-.88-4.58-4.55-4.58s-4.21,2.62-4.21,4.53v10.46c0,.58.13,1.09.73,1.3.39.16,1.27.32,1.69.34v.58h-7.59v-.58c.39-.03,1.27-.21,1.72-.45.55-.32.73-.74.73-1.32v-10.96c0-2.76,2.13-5.19,6.32-5.19Z"></path><path class="cls-1" d="m80.21,30.03v13.48c0,1.75.16,3.1.78,3.55.36.27,1.79.64,2.21.66v.58h-7.15v-.58c.52-.03,1.98-.48,2.42-.79.52-.37.81-1.67.81-3.58v-8.95l-9.7,13.91h-5.04v-.58c.65-.03,1.95-.66,2.52-1.17.47-.42.75-1.32.75-2.09v-9.32c0-2.07-.23-3.18-.78-3.63-.26-.21-1.82-.69-2.24-.72v-.58h7.2v.58c-.42.03-2.05.48-2.47.85-.49.48-.78,1.62-.78,3.63v9.67l10.4-14.91h1.07Z"></path></svg>