<svg xmlns="http://www.w3.org/2000/svg" width="297" height="109" viewBox="0 0 297 109" fill="none"><path fill-rule="evenodd" clip-rule="evenodd" d="M1.8983 52.7629C7.24281 31.1627 60.754 24.8211 97.9275 14.1143C121.738 7.25627 145.611 3.48819 172.356 3.66731C208.545 3.90969 250.401 0.759918 272.242 15.2818C297.271 31.9224 303.499 57.528 281.523 76.2494C261.091 93.6554 214.848 91.6048 177.018 96.4054C142.252 100.817 107.561 110.157 76.1036 102.317C37.7178 92.7505 -3.63563 75.1285 1.8983 52.7629Z" fill="#1E4AAE"></path><path d="M98.8892 27.7412C100.12 28.2246 100.735 28.9497 100.735 29.9165L102.844 61.4912V63.6226C102.844 64.6626 102.544 65.2632 101.943 65.4243H101.306L100.405 64.8311L100.735 60.2827V59.3379C100.735 50.5781 100.12 42.7925 98.8892 35.981H98.6035C97.373 39.7896 96.0547 46.4692 94.6484 56.02L92.8027 56.8989C91.6895 56.8989 90.9863 54.2769 90.6934 49.0327C88.4668 42.2798 87.0532 38.6323 86.4526 38.0903H86.145L86.4526 42.6387V48.1318C86.4526 60.8906 85.8374 67.27 84.6069 67.27H83.7061L83.3984 65.7319L84.6069 53.2734H84.2993L84.6069 52.9878V49.0327C84.6069 39.3794 84.3066 33.9082 83.7061 32.6191C84.1016 31.6816 84.5117 31.1836 84.9365 31.125H85.8374C86.8481 31.1836 88.064 34.2158 89.4849 40.2217C90.4956 42.1406 91.6016 45.5903 92.8027 50.5708H93.7476L97.6587 32.0259V31.125L97.395 29.2793C97.395 28.4736 97.8931 28.0708 98.8892 28.0708V27.7412ZM111.414 42.1113C113.303 42.1113 114.622 44.8213 115.369 50.2412L115.061 50.6147V52.4165C114.548 61.7476 112.93 66.4131 110.205 66.4131L109.875 66.6768H109.568C106.536 65.9883 105.02 62.1357 105.02 55.1191C105.02 46.4473 107.151 42.1113 111.414 42.1113ZM106.865 53.625C107.319 60.7002 108.22 64.2378 109.568 64.2378H109.875C111.589 64.2378 112.703 60.5977 113.215 53.3174V49.0327C113.215 46.3081 112.314 44.8066 110.513 44.5283C108.081 45.2461 106.865 48.2783 106.865 53.625ZM114.182 37.585H114.819V38.1782C112.783 49.3989 110.352 58.9204 107.524 66.7427C107.1 66.7427 106.887 67.6582 106.887 69.4893L106.052 70.0825L104.47 69.7749V68.5444C107.415 62.6704 110.161 53.354 112.71 40.5952C112.71 39.189 113.201 38.1855 114.182 37.585ZM127.454 32.2896C128.596 32.2896 129.299 32.7876 129.563 33.7837L128.948 35.937C129.446 56.4888 129.907 66.5229 130.332 66.0396L129.343 66.7646C128.508 66.3984 128.062 66.2153 128.003 66.2153L127.717 53.5371L127.454 53.2295H127.146C125.916 61.7402 124.084 65.9956 121.653 65.9956H121.06C118.628 65.9956 117.412 63.564 117.412 58.7007C117.412 55.1704 119.141 51.7207 122.598 48.3516C125.439 47.6924 126.86 46.5864 126.86 45.0337V40.793L126.245 33.7837C126.626 32.8755 127.029 32.3774 127.454 32.2896ZM119.851 57.4922V60.5024C119.851 62.0698 120.364 63.0952 121.389 63.5786H121.653C122.854 63.5786 124.275 59.1182 125.916 50.1973L125.652 49.8896H124.443C121.382 51.75 119.851 54.2842 119.851 57.4922ZM165.444 28.4663C167.627 28.5249 168.762 38.603 168.85 58.7007L169.795 68.4346L168.279 68.6982H167.642L166.741 67.7974V56.5474L166.433 51.999H166.147C161.299 52.5996 158.647 53.625 158.193 55.0752C157.417 62.4434 156.831 66.1714 156.436 66.2593H155.227L153.997 65.0508C154.993 57.3457 156.619 48.8423 158.875 39.5405C160.427 31.8647 162.617 28.1733 165.444 28.4663ZM159.182 49.8896L160.676 51.0542C164.719 50.1606 166.741 49.4722 166.741 48.9888V43.4956L167.048 39.5405L166.301 36.4863C165.73 34.0547 165.129 32.8389 164.5 32.8389C163.21 32.8389 161.438 38.5225 159.182 49.8896ZM174.167 30.356L175.2 30.0923L174.958 35.6294L174.871 40.5732L175.112 54.7896L174.827 60.876L175.464 64.5234C175.464 64.9043 174.937 65.5195 173.882 66.3691L172.41 65.1387C172.82 64.0986 173.025 61.9673 173.025 58.7446V58.1733L173.486 31.3447C173.838 30.6855 174.065 30.356 174.167 30.356ZM192.053 40.0239C193.943 40.0239 195.276 46.1909 196.052 58.5249V64.6113L195.107 65.5562C194.243 65.5562 193.628 65.146 193.262 64.3257L193.899 57.9536C193.445 48.8862 192.742 44.2207 191.79 43.957H191.196C189.336 48.9961 188.406 55.4707 188.406 63.3809L187.549 64.0181H186.34C185.974 64.0181 185.659 63.5054 185.396 62.48C186.201 61.0737 186.604 57.5361 186.604 51.8672C186.34 48.0293 185.842 46.1104 185.11 46.1104H184.758C183.132 46.1104 182.319 50.6587 182.319 59.7554V62.1724L182.693 64.0181C182.239 65.2192 181.426 65.8198 180.254 65.8198L179.045 64.3257L179.639 60.3706V58.8545L178.694 45.1655C178.694 44.0229 179.214 43.3198 180.254 43.0562C181.074 43.2612 181.484 43.8765 181.484 44.9019L180.847 46.7036V47.3188H181.111C182.708 44.2573 183.923 42.7266 184.758 42.7266C185.842 42.7266 186.97 43.8545 188.142 46.1104C188.552 46.1104 189.255 44.3818 190.251 40.9248L192.053 40.0239ZM206.379 41.8696H207.324L208.225 42.5068L207.896 47.0112C208.467 57.7778 209.382 63.1611 210.642 63.1611H211.235V63.4248C211.235 64.5381 210.833 65.2632 210.027 65.6001H208.796C207.991 65.6001 207.288 63.3662 206.687 58.8984H206.379C205.208 65.7979 203.391 69.2476 200.93 69.2476C199.524 69.2476 198.821 67.1016 198.821 62.8096V59.5137C198.821 50.1826 200.527 44.9165 203.94 43.7153C204.512 43.7153 205.325 43.1001 206.379 41.8696ZM200.93 58.5688V62.8096C200.93 65.0508 201.23 66.1714 201.831 66.1714C203.149 66.1714 204.468 60.9126 205.786 50.395V50.0654C205.64 47.2236 205.339 45.8027 204.885 45.8027H203.94C201.934 45.8027 200.93 50.0581 200.93 58.5688Z" fill="#EBCDD1"></path></svg>