<svg xmlns="http://www.w3.org/2000/svg" width="467" height="118" viewBox="0 0 467 118" fill="none"><path fill-rule="evenodd" clip-rule="evenodd" d="M4.13917 55.3477C11.0935 31.0622 87.4652 24.6732 140.317 13.1279C174.171 5.73278 208.211 1.82352 246.491 2.40713C298.285 3.19679 358.08 0.241462 389.802 16.9316C426.153 36.0568 435.887 65.0249 405.041 85.8263C376.362 105.166 310.122 102.194 256.139 107.068C206.531 111.548 157.188 121.587 111.92 112.296C56.6818 100.959 -3.06162 80.4938 4.13917 55.3477Z" fill="#1E4AAE"></path><path d="M105.513 27.4951C106.172 27.7148 106.582 28.125 106.743 28.7256L106.106 33.2739V49.0503H107.007C111.87 40.5396 114.302 34.6802 114.302 31.4722C115.166 30.6519 115.972 30.2417 116.719 30.2417L117.949 31.7798C116.528 33.728 113.284 40.21 108.215 51.2256V52.1265C109.958 59.6265 112.302 63.3765 115.247 63.3765V64.585L113.708 64.8486C111.277 64.8486 108.845 61.311 106.414 54.2358H106.106L104.568 67.2876L104.304 67.5952H103.096C102.583 67.5952 102.268 67.1924 102.151 66.3867C102.869 66.3867 103.586 59.3042 104.304 45.1392L103.997 28.396L105.513 27.4951ZM124.189 40.8325C126.079 40.8325 127.397 43.5425 128.145 48.9624L127.837 49.3359V51.1377C127.324 60.4688 125.706 65.1343 122.981 65.1343L122.651 65.3979H122.344C119.312 64.7095 117.795 60.8569 117.795 53.8403C117.795 45.1685 119.927 40.8325 124.189 40.8325ZM119.641 52.3462C120.095 59.4214 120.996 62.959 122.344 62.959H122.651C124.365 62.959 125.479 59.3188 125.991 52.0386V47.7539C125.991 45.0293 125.09 43.5278 123.289 43.2495C120.857 43.9673 119.641 46.9995 119.641 52.3462ZM126.958 36.3062H127.595V36.8994C125.559 48.1201 123.127 57.6416 120.3 65.4639C119.875 65.4639 119.663 66.3794 119.663 68.2104L118.828 68.8037L117.246 68.4961V67.2656C120.19 61.3916 122.937 52.0752 125.486 39.3164C125.486 37.9102 125.977 36.9067 126.958 36.3062ZM131.418 28.1763L132.935 29.1211L132.627 31.8237L133.835 46.9849H134.165C135.923 44.5532 137.432 43.3374 138.691 43.3374H139.636C142.068 45.4175 143.284 47.5635 143.284 49.7754C141.907 56.499 139.482 61.5527 136.011 64.9365L135.637 65.2222C134.832 65.0317 134.429 64.5337 134.429 63.728H133.835C132.341 63.728 131.536 63.4131 131.418 62.7832V62.5195L131.99 60.0806C131.99 46.2524 131.301 36.1304 129.924 29.7144C129.924 29.1724 130.422 28.6597 131.418 28.1763ZM134.78 62.5195L135.066 62.7832C136.956 61.6699 138.677 58.5498 140.229 53.4229L140.867 51.0059C140.867 47.5195 139.937 45.7764 138.076 45.7764C136.157 45.7764 135.059 51.3574 134.78 62.5195ZM181.758 38.7451C183.647 38.7451 184.98 44.9121 185.757 57.2461V63.3325L184.812 64.2773C183.948 64.2773 183.333 63.8672 182.966 63.0469L183.604 56.6748C183.149 47.6074 182.446 42.9419 181.494 42.6782H180.901C179.041 47.7173 178.11 54.1919 178.11 62.1021L177.253 62.7393H176.045C175.679 62.7393 175.364 62.2266 175.1 61.2012C175.906 59.7949 176.309 56.2573 176.309 50.5884C176.045 46.7505 175.547 44.8315 174.814 44.8315H174.463C172.837 44.8315 172.024 49.3799 172.024 58.4766V60.8936L172.397 62.7393C171.943 63.9404 171.13 64.541 169.958 64.541L168.75 63.0469L169.343 59.0918V57.5757L168.398 43.8867C168.398 42.7441 168.918 42.041 169.958 41.7773C170.779 41.9824 171.189 42.5977 171.189 43.623L170.552 45.4248V46.04H170.815C172.412 42.9785 173.628 41.4478 174.463 41.4478C175.547 41.4478 176.675 42.5757 177.847 44.8315C178.257 44.8315 178.96 43.103 179.956 39.646L181.758 38.7451ZM190.459 36.1963C191.235 36.1963 191.953 36.5991 192.612 37.4048C192.612 38.0054 191.895 38.7085 190.459 39.5142C189.917 39.5142 189.419 39.0234 188.965 38.042C189.36 36.9287 189.858 36.3135 190.459 36.1963ZM190.459 44.1064L191.404 45.3369C190.598 46.1426 190.195 48.3618 190.195 51.9946C190.283 55.8325 190.876 59.5679 191.975 63.2007V63.8159L191.096 64.7607H190.195C189.229 64.7607 188.503 59.9927 188.02 50.4565C188.02 46.2231 188.635 44.1064 189.866 44.1064H190.459ZM201.248 37.8662H201.511C203.914 37.8662 205.334 42.4072 205.774 51.4893V56.9824L206.104 60.3003L205.774 61.5308L206.104 64.2773L205.159 64.8486C204.163 64.585 203.665 63.8818 203.665 62.7393V52.6978C203.665 45.6226 202.947 41.7847 201.511 41.1841H201.248C199.08 42.2974 197.754 46.7505 197.271 54.5435V63.0469L197.6 64.2773C197.175 65.4785 196.765 66.0791 196.37 66.0791C195.359 66.0791 194.744 65.6689 194.524 64.8486L194.854 56.6748L193.953 42.9858V41.1841L195.161 39.9756C195.967 40.2686 196.37 40.5688 196.37 40.8765L196.062 45.4248L196.37 45.7324H196.963C196.963 42.7588 198.391 40.1367 201.248 37.8662ZM214.233 39.1626C217.471 40.1147 219.089 41.7334 219.089 44.0186V44.9194C219.089 49.4458 217.061 52.5806 213.003 54.3237H210.938V54.9609C210.938 58.5938 211.838 61.1279 213.64 62.5635H214.585C215.728 62.5635 217.346 60.9448 219.441 57.7075L219.705 57.9712H220.034C218.584 62.644 216.555 64.9805 213.948 64.9805C211.575 64.9805 209.641 60.8276 208.147 52.522C207.825 52.522 207.627 52.0166 207.554 51.0059C208.374 50.376 209.099 47.7466 209.729 43.1177C211.282 40.481 212.783 39.1626 214.233 39.1626ZM210.586 50.4126C210.762 51.4087 211.077 51.9067 211.531 51.9067H213.376C215.808 50.7642 217.024 48.4351 217.024 44.9194V44.6118C216.716 42.605 215.786 41.6016 214.233 41.6016C211.802 41.6016 210.586 44.5386 210.586 50.4126ZM250.906 44.1064C253 44.1064 254.304 46.4502 254.817 51.1377C254.817 54.375 252.598 58.5132 248.159 63.5522V63.9038C248.159 68.5034 248.474 73.7695 249.104 79.7021L248.159 80.2954H247.896C246.665 80.2954 246.05 79.1675 246.05 76.9116L245.72 74.209L246.05 73.9014V73.6377L245.105 63.9038L245.457 62.0581V55.686L245.72 52.0386H245.457C246.511 46.7505 248.328 44.1064 250.906 44.1064ZM247.896 55.0488V60.542H248.159C251.221 57.627 252.751 54.1772 252.751 50.1929C251.946 47.7612 251.228 46.5454 250.598 46.5454H250.312C248.701 47.8638 247.896 50.6982 247.896 55.0488ZM266.88 40.459H267.781L269.011 41.6895V42.3047L268.374 42.8979L266.88 42.5903C263.643 46.8677 262.024 50.918 262.024 54.7412V59.5972L262.31 62.959C262.31 63.7793 261.812 64.1895 260.815 64.1895V64.4531C260.01 64.1455 259.607 63.8452 259.607 63.5522V60.2124C258.845 50.5005 258.23 45.6445 257.761 45.6445C258.171 44.4141 258.574 43.7988 258.97 43.7988H259.277C260.098 44.1211 260.508 44.8389 260.508 45.9521V49.292H260.815C262.822 44.9121 264.844 41.9678 266.88 40.459ZM277.251 40.8325C279.141 40.8325 280.459 43.5425 281.206 48.9624L280.898 49.3359V51.1377C280.386 60.4688 278.767 65.1343 276.042 65.1343L275.713 65.3979H275.405C272.373 64.7095 270.857 60.8569 270.857 53.8403C270.857 45.1685 272.988 40.8325 277.251 40.8325ZM272.703 52.3462C273.157 59.4214 274.058 62.959 275.405 62.959H275.713C277.427 62.959 278.54 59.3188 279.053 52.0386V47.7539C279.053 45.0293 278.152 43.5278 276.35 43.2495C273.918 43.9673 272.703 46.9995 272.703 52.3462ZM293.291 31.0107C294.434 31.0107 295.137 31.5088 295.4 32.5049L294.785 34.6582C295.283 55.21 295.745 65.2441 296.169 64.7607L295.181 65.4858C294.346 65.1196 293.899 64.9365 293.84 64.9365L293.555 52.2583L293.291 51.9507H292.983C291.753 60.4614 289.922 64.7168 287.49 64.7168H286.897C284.465 64.7168 283.25 62.2852 283.25 57.4219C283.25 53.8916 284.978 50.4419 288.435 47.0728C291.277 46.4136 292.698 45.3076 292.698 43.7549V39.5142L292.083 32.5049C292.463 31.5967 292.866 31.0986 293.291 31.0107ZM285.688 56.2134V59.2236C285.688 60.791 286.201 61.8164 287.227 62.2998H287.49C288.691 62.2998 290.112 57.8394 291.753 48.9185L291.489 48.6108H290.281C287.219 50.4712 285.688 53.0054 285.688 56.2134ZM307.749 42.085L308.342 42.7222L307.749 45.1392V46.084L308.013 48.5229C307.207 59.436 305.5 64.8926 302.893 64.8926C300.227 64.8926 298.293 59.7217 297.092 49.3799V47.5781C297.092 46.04 297.495 45.1392 298.301 44.8755H298.938L299.839 45.4688L299.509 47.5781V50.5884C299.509 54.6167 300.425 58.5791 302.256 62.4756H302.893C304.299 61.9043 305.2 58.0664 305.596 50.9619V47.8857C305.596 46.4502 305.398 45.3296 305.002 44.5239C305.002 43.2349 305.918 42.4219 307.749 42.085ZM310.825 31.8237C311.719 32.1899 312.231 32.5928 312.363 33.0322L311.726 36.3721L312.363 49.1162H312.627C314.062 48.0322 315.894 45.3003 318.12 40.9204L318.428 40.5908H319.021L320.229 41.8213V42.4365C315.571 48.6768 313.242 52.2217 313.242 53.0713V53.3789C313.242 55.8398 316.274 59.0771 322.339 63.0908H322.646L324.492 62.4756V63.6841C324.111 64.4019 323.496 64.9146 322.646 65.2222C320.83 64.8267 317.695 62.395 313.242 57.9272L312.935 58.2349V60.0366C313.022 61.5454 313.323 62.5635 313.835 63.0908C313.44 64.292 313.037 64.8926 312.627 64.8926H312.034L310.518 63.4204L310.825 61.2451V58.8281C310.825 55.4004 310.613 53.6865 310.188 53.6865L310.518 52.478L309.617 33.6255H309.287C309.287 33.2593 309.8 32.6587 310.825 31.8237ZM328.843 28.3081L329.524 28.2642L329.656 30.4395V30.7471C329.656 35.3906 329.956 37.7124 330.557 37.7124L333.523 36.7236C333.728 37.1484 333.926 37.5879 334.116 38.042C333.75 38.3643 333.669 38.5693 333.875 38.6572L330.227 40.459L330.864 56.2573V57.4658C330.806 60.4395 330.593 62.8271 330.227 64.6289L328.799 64.541L328.711 59.8169V52.3022V48.9624C328.711 43.7183 328.411 41.0962 327.81 41.0962L325.02 41.3159L324.031 40.9204L324.119 40.1953L324.646 40.0635H325.239C327.158 39.7852 328.118 39.1113 328.118 38.042L327.48 28.9453L327.81 28.6816L328.843 28.3081ZM340.884 39.1626C344.121 40.1147 345.74 41.7334 345.74 44.0186V44.9194C345.74 49.4458 343.711 52.5806 339.653 54.3237H337.588V54.9609C337.588 58.5938 338.489 61.1279 340.291 62.5635H341.235C342.378 62.5635 343.997 60.9448 346.091 57.7075L346.355 57.9712H346.685C345.234 62.644 343.206 64.9805 340.598 64.9805C338.225 64.9805 336.292 60.8276 334.797 52.522C334.475 52.522 334.277 52.0166 334.204 51.0059C335.024 50.376 335.75 47.7466 336.379 43.1177C337.932 40.481 339.434 39.1626 340.884 39.1626ZM337.236 50.4126C337.412 51.4087 337.727 51.9067 338.181 51.9067H340.027C342.458 50.7642 343.674 48.4351 343.674 44.9194V44.6118C343.367 42.605 342.437 41.6016 340.884 41.6016C338.452 41.6016 337.236 44.5386 337.236 50.4126ZM357.847 40.459H358.748L359.978 41.6895V42.3047L359.341 42.8979L357.847 42.5903C354.609 46.8677 352.991 50.918 352.991 54.7412V59.5972L353.276 62.959C353.276 63.7793 352.778 64.1895 351.782 64.1895V64.4531C350.977 64.1455 350.574 63.8452 350.574 63.5522V60.2124C349.812 50.5005 349.197 45.6445 348.728 45.6445C349.138 44.4141 349.541 43.7988 349.937 43.7988H350.244C351.064 44.1211 351.475 44.8389 351.475 45.9521V49.292H351.782C353.789 44.9121 355.811 41.9678 357.847 40.459Z" fill="#EBCDD1"></path></svg>