<svg xmlns="http://www.w3.org/2000/svg" width="230" height="109" viewBox="0 0 230 109" fill="none"><path fill-rule="evenodd" clip-rule="evenodd" d="M1.46948 52.7629C5.60716 31.1627 47.0352 24.8211 75.8147 14.1143C94.2489 7.25627 112.731 3.48818 133.437 3.66731C161.454 3.90968 193.859 0.759912 210.768 15.2818C230.145 31.9224 234.967 57.528 217.953 76.2494C202.135 93.6554 166.334 91.6048 137.046 96.4054C110.13 100.817 83.2729 110.157 58.9187 102.317C29.2007 92.7505 -2.81486 75.1285 1.46948 52.7629Z" fill="#1E4AAE"></path><path d="M62.5234 27.9214C63.7539 28.4048 64.3691 29.1299 64.3691 30.0967L66.4785 61.6714V63.8027C66.4785 64.8428 66.1782 65.4434 65.5776 65.6045H64.9404L64.0396 65.0112L64.3691 60.4629V59.5181C64.3691 50.7583 63.7539 42.9727 62.5234 36.1611H62.2378C61.0073 39.9697 59.689 46.6494 58.2827 56.2002L56.437 57.0791C55.3237 57.0791 54.6206 54.457 54.3276 49.2129C52.1011 42.46 50.6875 38.8125 50.0869 38.2705H49.7793L50.0869 42.8188V48.312C50.0869 61.0708 49.4717 67.4502 48.2412 67.4502H47.3403L47.0327 65.9121L48.2412 53.4536H47.9336L48.2412 53.168V49.2129C48.2412 39.5596 47.9409 34.0884 47.3403 32.7993C47.7358 31.8618 48.146 31.3638 48.5708 31.3052H49.4717C50.4824 31.3638 51.6982 34.396 53.1191 40.4019C54.1299 42.3208 55.2358 45.7705 56.437 50.751H57.3818L61.293 32.2061V31.3052L61.0293 29.4595C61.0293 28.6538 61.5273 28.251 62.5234 28.251V27.9214ZM75.0479 42.2915C76.9375 42.2915 78.2559 45.0015 79.0029 50.4214L78.6953 50.7949V52.5967C78.1826 61.9277 76.564 66.5933 73.8394 66.5933L73.5098 66.8569H73.2021C70.1699 66.1685 68.6538 62.3159 68.6538 55.2993C68.6538 46.6274 70.7852 42.2915 75.0479 42.2915ZM70.4995 53.8052C70.9536 60.8804 71.8545 64.418 73.2021 64.418H73.5098C75.2236 64.418 76.3369 60.7778 76.8496 53.4976V49.2129C76.8496 46.4883 75.9487 44.9868 74.147 44.7085C71.7153 45.4263 70.4995 48.4585 70.4995 53.8052ZM77.8164 37.7651H78.4536V38.3584C76.4175 49.5791 73.9858 59.1006 71.1587 66.9229C70.7339 66.9229 70.5215 67.8384 70.5215 69.6694L69.6865 70.2627L68.1045 69.9551V68.7246C71.0488 62.8506 73.7954 53.5342 76.3442 40.7754C76.3442 39.3691 76.835 38.3657 77.8164 37.7651ZM91.0879 32.4697C92.2305 32.4697 92.9336 32.9678 93.1973 33.9639L92.582 36.1172C93.0801 56.6689 93.5415 66.7031 93.9663 66.2197L92.9775 66.9448C92.1426 66.5786 91.6958 66.3955 91.6372 66.3955L91.3516 53.7173L91.0879 53.4097H90.7803C89.5498 61.9204 87.7188 66.1758 85.2871 66.1758H84.6938C82.2622 66.1758 81.0464 63.7441 81.0464 58.8809C81.0464 55.3506 82.7749 51.9009 86.2319 48.5317C89.0737 47.8726 90.4946 46.7666 90.4946 45.2139V40.9731L89.8794 33.9639C90.2603 33.0557 90.6631 32.5576 91.0879 32.4697ZM83.4854 57.6724V60.6826C83.4854 62.25 83.998 63.2754 85.0234 63.7588H85.2871C86.4883 63.7588 87.9092 59.2983 89.5498 50.3774L89.2861 50.0698H88.0776C85.0161 51.9302 83.4854 54.4644 83.4854 57.6724ZM132.133 28.1631C133.363 28.5732 133.979 28.9761 133.979 29.3716C133.979 30.0601 133.664 30.7632 133.034 31.481C132.667 43.0386 130.866 54.2739 127.628 65.187L126.156 66.0879C125.189 66.0879 124.574 64.5718 124.311 61.5396C122.89 57.8481 120.846 47.9385 118.18 31.8105L119.389 30.5801C120.59 30.5801 122.333 39.6841 124.618 57.8921C125.702 60.5142 126.405 61.8252 126.728 61.8252C129.159 53.2705 130.375 46.5908 130.375 41.7861V39.0835L130.595 29.064L132.133 28.1631ZM137.187 37.6553C137.963 37.6553 138.681 38.0581 139.34 38.8638C139.34 39.4644 138.622 40.1675 137.187 40.9731C136.645 40.9731 136.146 40.4824 135.692 39.501C136.088 38.3877 136.586 37.7725 137.187 37.6553ZM137.187 45.5654L138.131 46.7959C137.326 47.6016 136.923 49.8208 136.923 53.4536C137.011 57.2915 137.604 61.0269 138.703 64.6597V65.2749L137.824 66.2197H136.923C135.956 66.2197 135.231 61.4517 134.748 51.9155C134.748 47.6821 135.363 45.5654 136.593 45.5654H137.187ZM150.941 42.5991C151.322 42.687 151.725 43.1997 152.15 44.1372C151.52 45.3677 149.689 51.9375 146.657 63.8467C145.88 65.458 145.075 66.3882 144.24 66.6372C143.039 66.6372 142.438 63.8027 142.438 58.1338L141.208 45.3457C141.486 44.1445 142.086 43.5439 143.009 43.5439L143.91 44.7524L143.646 47.1914C143.734 56.6689 144.232 61.4077 145.141 61.4077C147.777 53.3657 149.096 48.2241 149.096 45.9829L148.788 43.5439C149.535 42.9141 150.253 42.5991 150.941 42.5991ZM158.896 40.6216C162.133 41.5737 163.751 43.1924 163.751 45.4775V46.3784C163.751 50.9048 161.723 54.0396 157.665 55.7827H155.6V56.4199C155.6 60.0527 156.5 62.5869 158.302 64.0225H159.247C160.39 64.0225 162.008 62.4038 164.103 59.1665L164.367 59.4302H164.696C163.246 64.103 161.217 66.4395 158.61 66.4395C156.237 66.4395 154.303 62.2866 152.809 53.981C152.487 53.981 152.289 53.4756 152.216 52.4648C153.036 51.835 153.761 49.2056 154.391 44.5767C155.944 41.9399 157.445 40.6216 158.896 40.6216ZM155.248 51.8716C155.424 52.8677 155.739 53.3657 156.193 53.3657H158.039C160.47 52.2231 161.686 49.894 161.686 46.3784V46.0708C161.378 44.064 160.448 43.0605 158.896 43.0605C156.464 43.0605 155.248 45.9976 155.248 51.8716ZM174.079 39.501L174.979 39.8086V40.4019C170.922 43.1265 168.893 46.8765 168.893 51.6519L168.629 54.3984V58.3096C168.629 61.4297 170.131 63.4512 173.134 64.374C175.551 64.374 177.074 63.3706 177.704 61.3638H178.605L178.935 62.2646C178.935 64.4619 177.316 65.8901 174.079 66.5493C170.797 66.5493 168.571 64.9233 167.399 61.6714C166.769 60.0308 166.454 58.5 166.454 57.0791V54.9697C166.454 49.0664 167.985 44.4155 171.046 41.0171L174.079 39.501ZM189.525 42.0498H190.47L191.371 42.687L191.042 47.1914C191.613 57.958 192.528 63.3413 193.788 63.3413H194.381V63.605C194.381 64.7183 193.979 65.4434 193.173 65.7803H191.942C191.137 65.7803 190.434 63.5464 189.833 59.0786H189.525C188.354 65.978 186.537 69.4277 184.076 69.4277C182.67 69.4277 181.967 67.2817 181.967 62.9897V59.6938C181.967 50.3628 183.673 45.0967 187.086 43.8955C187.658 43.8955 188.471 43.2803 189.525 42.0498ZM184.076 58.749V62.9897C184.076 65.231 184.376 66.3516 184.977 66.3516C186.295 66.3516 187.614 61.0928 188.932 50.5752V50.2456C188.786 47.4038 188.485 45.9829 188.031 45.9829H187.086C185.08 45.9829 184.076 50.2383 184.076 58.749Z" fill="#EBCDD1"></path></svg>