<svg xmlns="http://www.w3.org/2000/svg" width="230" height="109" viewBox="0 0 230 109" fill="none"><path fill-rule="evenodd" clip-rule="evenodd" d="M1.46948 52.7629C5.60716 31.1627 47.0352 24.8211 75.8147 14.1143C94.2489 7.25627 112.731 3.48818 133.437 3.66731C161.454 3.90969 193.859 0.759912 210.768 15.2818C230.145 31.9224 234.967 57.528 217.953 76.2494C202.135 93.6554 166.334 91.6048 137.046 96.4054C110.13 100.817 83.2729 110.157 58.9187 102.317C29.2007 92.7505 -2.81486 75.1285 1.46948 52.7629Z" fill="#1E4AAE"></path><path d="M62.5234 27.9214C63.7539 28.4048 64.3691 29.1299 64.3691 30.0967L66.4785 61.6714V63.8027C66.4785 64.8428 66.1782 65.4434 65.5776 65.6045H64.9404L64.0396 65.0112L64.3691 60.4629V59.5181C64.3691 50.7583 63.7539 42.9727 62.5234 36.1611H62.2378C61.0073 39.9697 59.689 46.6494 58.2827 56.2002L56.437 57.0791C55.3237 57.0791 54.6206 54.457 54.3276 49.2129C52.1011 42.46 50.6875 38.8125 50.0869 38.2705H49.7793L50.0869 42.8188V48.312C50.0869 61.0708 49.4717 67.4502 48.2412 67.4502H47.3403L47.0327 65.9121L48.2412 53.4536H47.9336L48.2412 53.168V49.2129C48.2412 39.5596 47.9409 34.0884 47.3403 32.7993C47.7358 31.8618 48.146 31.3638 48.5708 31.3052H49.4717C50.4824 31.3638 51.6982 34.396 53.1191 40.4019C54.1299 42.3208 55.2358 45.7705 56.437 50.751H57.3818L61.293 32.2061V31.3052L61.0293 29.4595C61.0293 28.6538 61.5273 28.251 62.5234 28.251V27.9214ZM75.0479 42.2915C76.9375 42.2915 78.2559 45.0015 79.0029 50.4214L78.6953 50.7949V52.5967C78.1826 61.9277 76.564 66.5933 73.8394 66.5933L73.5098 66.8569H73.2021C70.1699 66.1685 68.6538 62.3159 68.6538 55.2993C68.6538 46.6274 70.7852 42.2915 75.0479 42.2915ZM70.4995 53.8052C70.9536 60.8804 71.8545 64.418 73.2021 64.418H73.5098C75.2236 64.418 76.3369 60.7778 76.8496 53.4976V49.2129C76.8496 46.4883 75.9487 44.9868 74.147 44.7085C71.7153 45.4263 70.4995 48.4585 70.4995 53.8052ZM77.8164 37.7651H78.4536V38.3584C76.4175 49.5791 73.9858 59.1006 71.1587 66.9229C70.7339 66.9229 70.5215 67.8384 70.5215 69.6694L69.6865 70.2627L68.1045 69.9551V68.7246C71.0488 62.8506 73.7954 53.5342 76.3442 40.7754C76.3442 39.3691 76.835 38.3657 77.8164 37.7651ZM91.0879 32.4697C92.2305 32.4697 92.9336 32.9678 93.1973 33.9639L92.582 36.1172C93.0801 56.6689 93.5415 66.7031 93.9663 66.2197L92.9775 66.9448C92.1426 66.5786 91.6958 66.3955 91.6372 66.3955L91.3516 53.7173L91.0879 53.4097H90.7803C89.5498 61.9204 87.7188 66.1758 85.2871 66.1758H84.6938C82.2622 66.1758 81.0464 63.7441 81.0464 58.8809C81.0464 55.3506 82.7749 51.9009 86.2319 48.5317C89.0737 47.8726 90.4946 46.7666 90.4946 45.2139V40.9731L89.8794 33.9639C90.2603 33.0557 90.6631 32.5576 91.0879 32.4697ZM83.4854 57.6724V60.6826C83.4854 62.25 83.998 63.2754 85.0234 63.7588H85.2871C86.4883 63.7588 87.9092 59.2983 89.5498 50.3774L89.2861 50.0698H88.0776C85.0161 51.9302 83.4854 54.4644 83.4854 57.6724ZM129.079 28.6465C131.261 28.7051 132.396 38.7832 132.484 58.8809L133.429 68.6147L131.913 68.8784H131.276L130.375 67.9775V56.7275L130.067 52.1792H129.782C124.933 52.7798 122.282 53.8052 121.828 55.2554C121.051 62.6235 120.465 66.3516 120.07 66.4395H118.861L117.631 65.231C118.627 57.5259 120.253 49.0225 122.509 39.7207C124.062 32.0449 126.251 28.3535 129.079 28.6465ZM122.816 50.0698L124.311 51.2344C128.354 50.3408 130.375 49.6523 130.375 49.1689V43.6758L130.683 39.7207L129.936 36.6665C129.364 34.2349 128.764 33.019 128.134 33.019C126.845 33.019 125.072 38.7026 122.816 50.0698ZM142.614 39.3252H142.877C145.28 39.3252 146.701 43.8662 147.14 52.9482V58.4414L147.47 61.7593L147.14 62.9897L147.47 65.7363L146.525 66.3076C145.529 66.0439 145.031 65.3408 145.031 64.1982V54.1567C145.031 47.0815 144.313 43.2437 142.877 42.6431H142.614C140.446 43.7563 139.12 48.2095 138.637 56.0024V64.5059L138.966 65.7363C138.542 66.9375 138.131 67.5381 137.736 67.5381C136.725 67.5381 136.11 67.1279 135.89 66.3076L136.22 58.1338L135.319 44.4448V42.6431L136.527 41.4346C137.333 41.7275 137.736 42.0278 137.736 42.3354L137.428 46.8838L137.736 47.1914H138.329C138.329 44.2178 139.757 41.5957 142.614 39.3252ZM156.632 39.3252H156.896C159.298 39.3252 160.719 43.8662 161.159 52.9482V58.4414L161.488 61.7593L161.159 62.9897L161.488 65.7363L160.543 66.3076C159.547 66.0439 159.049 65.3408 159.049 64.1982V54.1567C159.049 47.0815 158.332 43.2437 156.896 42.6431H156.632C154.464 43.7563 153.139 48.2095 152.655 56.0024V64.5059L152.985 65.7363C152.56 66.9375 152.15 67.5381 151.754 67.5381C150.744 67.5381 150.128 67.1279 149.909 66.3076L150.238 58.1338L149.337 44.4448V42.6431L150.546 41.4346C151.352 41.7275 151.754 42.0278 151.754 42.3354L151.447 46.8838L151.754 47.1914H152.348C152.348 44.2178 153.776 41.5957 156.632 39.3252ZM171.771 42.0498H172.716L173.617 42.687L173.288 47.1914C173.859 57.958 174.774 63.3413 176.034 63.3413H176.627V63.605C176.627 64.7183 176.225 65.4434 175.419 65.7803H174.188C173.383 65.7803 172.68 63.5464 172.079 59.0786H171.771C170.6 65.978 168.783 69.4277 166.322 69.4277C164.916 69.4277 164.213 67.2817 164.213 62.9897V59.6938C164.213 50.3628 165.919 45.0967 169.333 43.8955C169.904 43.8955 170.717 43.2803 171.771 42.0498ZM166.322 58.749V62.9897C166.322 65.231 166.623 66.3516 167.223 66.3516C168.542 66.3516 169.86 61.0928 171.178 50.5752V50.2456C171.032 47.4038 170.731 45.9829 170.277 45.9829H169.333C167.326 45.9829 166.322 50.2383 166.322 58.749Z" fill="#EBCDD1"></path></svg>