<svg xmlns="http://www.w3.org/2000/svg" width="230" height="109" viewBox="0 0 230 109" fill="none"><path fill-rule="evenodd" clip-rule="evenodd" d="M1.46948 52.7629C5.60716 31.1627 47.0352 24.8211 75.8147 14.1143C94.2489 7.25627 112.731 3.48818 133.437 3.66731C161.454 3.90969 193.859 0.759912 210.768 15.2818C230.145 31.9224 234.967 57.528 217.953 76.2494C202.135 93.6554 166.334 91.6048 137.046 96.4054C110.13 100.817 83.2729 110.157 58.9187 102.317C29.2007 92.7505 -2.81486 75.1285 1.46948 52.7629Z" fill="#1E4AAE"></path><path d="M68.5234 27.9214C69.7539 28.4048 70.3691 29.1299 70.3691 30.0967L72.4785 61.6714V63.8027C72.4785 64.8428 72.1782 65.4434 71.5776 65.6045H70.9404L70.0396 65.0112L70.3691 60.4629V59.5181C70.3691 50.7583 69.7539 42.9727 68.5234 36.1611H68.2378C67.0073 39.9697 65.689 46.6494 64.2827 56.2002L62.437 57.0791C61.3237 57.0791 60.6206 54.457 60.3276 49.2129C58.1011 42.46 56.6875 38.8125 56.0869 38.2705H55.7793L56.0869 42.8188V48.312C56.0869 61.0708 55.4717 67.4502 54.2412 67.4502H53.3403L53.0327 65.9121L54.2412 53.4536H53.9336L54.2412 53.168V49.2129C54.2412 39.5596 53.9409 34.0884 53.3403 32.7993C53.7358 31.8618 54.146 31.3638 54.5708 31.3052H55.4717C56.4824 31.3638 57.6982 34.396 59.1191 40.4019C60.1299 42.3208 61.2358 45.7705 62.437 50.751H63.3818L67.293 32.2061V31.3052L67.0293 29.4595C67.0293 28.6538 67.5273 28.251 68.5234 28.251V27.9214ZM81.0479 42.2915C82.9375 42.2915 84.2559 45.0015 85.0029 50.4214L84.6953 50.7949V52.5967C84.1826 61.9277 82.564 66.5933 79.8394 66.5933L79.5098 66.8569H79.2021C76.1699 66.1685 74.6538 62.3159 74.6538 55.2993C74.6538 46.6274 76.7852 42.2915 81.0479 42.2915ZM76.4995 53.8052C76.9536 60.8804 77.8545 64.418 79.2021 64.418H79.5098C81.2236 64.418 82.3369 60.7778 82.8496 53.4976V49.2129C82.8496 46.4883 81.9487 44.9868 80.147 44.7085C77.7153 45.4263 76.4995 48.4585 76.4995 53.8052ZM83.8164 37.7651H84.4536V38.3584C82.4175 49.5791 79.9858 59.1006 77.1587 66.9229C76.7339 66.9229 76.5215 67.8384 76.5215 69.6694L75.6865 70.2627L74.1045 69.9551V68.7246C77.0488 62.8506 79.7954 53.5342 82.3442 40.7754C82.3442 39.3691 82.835 38.3657 83.8164 37.7651ZM97.0879 32.4697C98.2305 32.4697 98.9336 32.9678 99.1973 33.9639L98.582 36.1172C99.0801 56.6689 99.5415 66.7031 99.9663 66.2197L98.9775 66.9448C98.1426 66.5786 97.6958 66.3955 97.6372 66.3955L97.3516 53.7173L97.0879 53.4097H96.7803C95.5498 61.9204 93.7188 66.1758 91.2871 66.1758H90.6938C88.2622 66.1758 87.0464 63.7441 87.0464 58.8809C87.0464 55.3506 88.7749 51.9009 92.2319 48.5317C95.0737 47.8726 96.4946 46.7666 96.4946 45.2139V40.9731L95.8794 33.9639C96.2603 33.0557 96.6631 32.5576 97.0879 32.4697ZM89.4854 57.6724V60.6826C89.4854 62.25 89.998 63.2754 91.0234 63.7588H91.2871C92.4883 63.7588 93.9092 59.2983 95.5498 50.3774L95.2861 50.0698H94.0776C91.0161 51.9302 89.4854 54.4644 89.4854 57.6724ZM137.54 27.7456C138.77 28.1704 139.385 28.5732 139.385 28.9541V29.5913C139.385 29.9868 138.47 30.1846 136.639 30.1846C133.196 31.9863 130.845 34.9233 129.585 38.9956C127.271 43.5952 126.114 48.7295 126.114 54.3984V54.7061C126.509 60.7705 127.923 63.8027 130.354 63.8027L131.299 64.1104H133.101C134.258 63.5977 135.577 61.166 137.056 56.8154H137.957V57.145C136.902 63.4146 135.086 66.5493 132.508 66.5493C129.08 66.5493 126.333 64.0078 124.268 58.9248L124.004 55.9146C124.004 47.1548 126.385 39.3838 131.146 32.6016C133.797 29.3643 135.928 27.7456 137.54 27.7456ZM142.571 30.5361L143.604 30.2725L143.362 35.8096L143.274 40.7534L143.516 54.9697L143.23 61.0562L143.868 64.7036C143.868 65.0845 143.34 65.6997 142.286 66.5493L140.813 65.3188C141.224 64.2788 141.429 62.1475 141.429 58.9248V58.3535L141.89 31.5249C142.242 30.8657 142.469 30.5361 142.571 30.5361ZM154.876 42.0498H155.821L156.722 42.687L156.392 47.1914C156.963 57.958 157.879 63.3413 159.139 63.3413H159.732V63.605C159.732 64.7183 159.329 65.4434 158.523 65.7803H157.293C156.487 65.7803 155.784 63.5464 155.184 59.0786H154.876C153.704 65.978 151.888 69.4277 149.427 69.4277C148.021 69.4277 147.317 67.2817 147.317 62.9897V59.6938C147.317 50.3628 149.024 45.0967 152.437 43.8955C153.008 43.8955 153.821 43.2803 154.876 42.0498ZM149.427 58.749V62.9897C149.427 65.231 149.727 66.3516 150.328 66.3516C151.646 66.3516 152.964 61.0928 154.283 50.5752V50.2456C154.136 47.4038 153.836 45.9829 153.382 45.9829H152.437C150.43 45.9829 149.427 50.2383 149.427 58.749ZM170.828 41.918H171.729L172.959 43.1484V43.7637L172.322 44.3569L170.828 44.0493C167.591 48.3267 165.972 52.377 165.972 56.2002V61.0562L166.258 64.418C166.258 65.2383 165.76 65.6484 164.764 65.6484V65.9121C163.958 65.6045 163.555 65.3042 163.555 65.0112V61.6714C162.793 51.9595 162.178 47.1035 161.709 47.1035C162.12 45.873 162.522 45.2578 162.918 45.2578H163.226C164.046 45.5801 164.456 46.2979 164.456 47.4111V50.751H164.764C166.771 46.3711 168.792 43.4268 170.828 41.918ZM183.001 42.0498H183.946L184.847 42.687L184.517 47.1914C185.088 57.958 186.004 63.3413 187.264 63.3413H187.857V63.605C187.857 64.7183 187.454 65.4434 186.648 65.7803H185.418C184.612 65.7803 183.909 63.5464 183.309 59.0786H183.001C181.829 65.978 180.013 69.4277 177.552 69.4277C176.146 69.4277 175.442 67.2817 175.442 62.9897V59.6938C175.442 50.3628 177.149 45.0967 180.562 43.8955C181.133 43.8955 181.946 43.2803 183.001 42.0498ZM177.552 58.749V62.9897C177.552 65.231 177.852 66.3516 178.453 66.3516C179.771 66.3516 181.089 61.0928 182.408 50.5752V50.2456C182.261 47.4038 181.961 45.9829 181.507 45.9829H180.562C178.555 45.9829 177.552 50.2383 177.552 58.749Z" fill="#EBCDD1"></path></svg>