<svg xmlns="http://www.w3.org/2000/svg" width="180" height="103" viewBox="0 0 180 103" fill="none"><path fill-rule="evenodd" clip-rule="evenodd" d="M1.59088 47.9581C4.26378 26.915 33.6174 21.379 53.9311 11.3751C66.9428 4.96734 80.0264 1.58001 94.7391 2.0857C114.646 2.76993 137.629 0.209174 149.821 14.671C163.792 31.2428 167.534 56.3434 155.678 74.3676C144.656 91.1254 119.196 88.5497 98.4476 92.7735C79.3805 96.6552 60.4153 105.354 43.0165 97.3031C21.7857 87.4797 -1.17675 69.747 1.59088 47.9581Z" fill="#1E4AAE"></path><path d="M42.186 27.2285H43.0869L43.6802 27.8657V28.1294C42.5083 36.0103 41.9224 41.3057 41.9224 44.0156V45.8174L42.186 46.125L41.9224 46.4326V47.9268C42.5815 56.4521 43.4824 60.7148 44.625 60.7148H44.9326C47.8477 60.7148 50.0815 55.0386 51.6343 43.686L51.9199 40.0605L50.9751 29.0742L51.9199 27.8657C53.5312 27.8657 54.3369 29.0742 54.3369 31.4912L54.0732 39.731C52.0078 55.5366 48.8584 63.4395 44.625 63.4395C41.5928 63.4395 40.0767 56.2397 40.0767 41.8403C40.5601 32.0991 41.2632 27.2285 42.186 27.2285ZM66.5537 29.4697C67.6963 29.4697 68.3994 29.9678 68.6631 30.9639L68.0479 33.1172C68.5459 53.6689 69.0073 63.7031 69.4321 63.2197L68.4434 63.9448C67.6084 63.5786 67.1616 63.3955 67.103 63.3955L66.8174 50.7173L66.5537 50.4097H66.2461C65.0156 58.9204 63.1846 63.1758 60.7529 63.1758H60.1597C57.728 63.1758 56.5122 60.7441 56.5122 55.8809C56.5122 52.3506 58.2407 48.9009 61.6978 45.5317C64.5396 44.8726 65.9604 43.7666 65.9604 42.2139V37.9731L65.3452 30.9639C65.7261 30.0557 66.1289 29.5576 66.5537 29.4697ZM58.9512 54.6724V57.6826C58.9512 59.25 59.4639 60.2754 60.4893 60.7588H60.7529C61.9541 60.7588 63.375 56.2983 65.0156 47.3774L64.752 47.0698H63.5435C60.4819 48.9302 58.9512 51.4644 58.9512 54.6724ZM81.6489 29.2061C84.8862 29.3232 86.5049 29.7261 86.5049 30.4146V31.0078L86.1973 31.3154L85.2964 31.645V31.9526L84.9668 31.645H81.3413C78.0894 31.645 76.1631 34.582 75.5625 40.4561V46.2129H75.8481C78.0308 45.8613 80.2646 45.1582 82.5498 44.1035L82.8574 44.3672V45.0044C82.6523 45.9272 80.2207 47.0332 75.5625 48.3223L75.8481 58.0562V60.8027C75.8481 62.3262 75.438 63.2417 74.6177 63.5493H74.354L73.4092 62.3188L74.0464 59.2646L73.7607 49.5527L73.4092 48.6519H72.8159C70.3257 48.6519 68.8169 48.2417 68.2896 47.4214C68.6997 46.1909 69.1025 45.5757 69.498 45.5757H70.1353L72.5522 46.2129H72.8159C73.27 46.2129 73.4678 44.6968 73.4092 41.6646C74.1855 33.3589 76.9321 29.2061 81.6489 29.2061ZM88.5264 39.2915C90.416 39.2915 91.7344 42.0015 92.4814 47.4214L92.1738 47.7949V49.5967C91.6611 58.9277 90.0425 63.5933 87.3179 63.5933L86.9883 63.8569H86.6807C83.6484 63.1685 82.1323 59.3159 82.1323 52.2993C82.1323 43.6274 84.2637 39.2915 88.5264 39.2915ZM83.978 50.8052C84.4321 57.8804 85.333 61.418 86.6807 61.418H86.9883C88.7021 61.418 89.8154 57.7778 90.3281 50.4976V46.2129C90.3281 43.4883 89.4272 41.9868 87.6255 41.7085C85.1938 42.4263 83.978 45.4585 83.978 50.8052ZM103.072 38.918H103.973L105.204 40.1484V40.7637L104.566 41.3569L103.072 41.0493C99.835 45.3267 98.2163 49.377 98.2163 53.2002V58.0562L98.502 61.418C98.502 62.2383 98.0039 62.6484 97.0078 62.6484V62.9121C96.2021 62.6045 95.7993 62.3042 95.7993 62.0112V58.6714C95.0376 48.9595 94.4224 44.1035 93.9536 44.1035C94.3638 42.873 94.7666 42.2578 95.1621 42.2578H95.4697C96.29 42.5801 96.7002 43.2979 96.7002 44.4111V47.751H97.0078C99.0146 43.3711 101.036 40.4268 103.072 38.918ZM116.498 37.7095L116.827 38.061V38.6543C112.975 41.3789 111.048 44.2134 111.048 47.1577V47.7949C111.048 49.9482 112.777 52.9731 116.234 56.8696L116.498 58.1001C115.033 61.938 112.198 63.8569 107.994 63.8569C105.782 63.8569 104.676 63.0439 104.676 61.418L108.302 61.7476H109.532C112.374 61.0591 113.795 59.8433 113.795 58.1001V57.7705C113.795 57.2725 112.374 54.9507 109.532 50.8052L108.631 47.4214C108.631 43.7007 111.063 40.4634 115.926 37.7095H116.498ZM119.464 30.2827C120.357 30.6489 120.87 31.0518 121.002 31.4912L120.365 34.8311L121.002 47.5752H121.266C122.701 46.4912 124.532 43.7593 126.759 39.3794L127.066 39.0498H127.66L128.868 40.2803V40.8955C124.21 47.1357 121.881 50.6807 121.881 51.5303V51.8379C121.881 54.2988 124.913 57.5361 130.978 61.5498H131.285L133.131 60.9346V62.1431C132.75 62.8608 132.135 63.3735 131.285 63.6812C129.469 63.2856 126.334 60.854 121.881 56.3862L121.573 56.6938V58.4956C121.661 60.0044 121.961 61.0225 122.474 61.5498C122.079 62.751 121.676 63.3516 121.266 63.3516H120.672L119.156 61.8794L119.464 59.7041V57.2871C119.464 53.8594 119.251 52.1455 118.827 52.1455L119.156 50.937L118.255 32.0845H117.926C117.926 31.7183 118.438 31.1177 119.464 30.2827Z" fill="#EBCDD1"></path></svg>