<svg xmlns="http://www.w3.org/2000/svg" width="93" height="91" viewBox="0 0 93 91" fill="none"><path d="M46.473 63.9443C56.8983 63.9443 65.3499 55.6863 65.3499 45.4999C65.3499 35.3133 56.8983 27.0554 46.473 27.0554C36.0476 27.0554 27.5962 35.3133 27.5962 45.4999C27.5962 55.6863 36.0476 63.9443 46.473 63.9443Z" stroke="#1E4AAE" stroke-width="7" stroke-linecap="round" stroke-linejoin="round"></path><path d="M4 63.9444V27.0556C4 14.3223 14.5643 4 27.5961 4H65.3498C78.3814 4 88.9459 14.3223 88.9459 27.0556V63.9444C88.9459 76.6776 78.3814 87 65.3498 87H27.5961C14.5643 87 4 76.6776 4 63.9444Z" stroke="#1E4AAE" stroke-width="7"></path><path d="M72.4285 20.1843L72.4757 20.1331" stroke="#1E4AAE" stroke-width="7" stroke-linecap="round" stroke-linejoin="round"></path></svg>