<svg xmlns="http://www.w3.org/2000/svg" width="230" height="109" viewBox="0 0 230 109" fill="none"><path fill-rule="evenodd" clip-rule="evenodd" d="M1.46948 52.7629C5.60716 31.1627 47.0352 24.8211 75.8147 14.1143C94.2489 7.25627 112.731 3.48818 133.437 3.66731C161.454 3.90969 193.859 0.759912 210.768 15.2818C230.145 31.9224 234.967 57.528 217.953 76.2494C202.135 93.6554 166.334 91.6048 137.046 96.4054C110.13 100.817 83.2729 110.157 58.9187 102.317C29.2007 92.7505 -2.81486 75.1285 1.46948 52.7629Z" fill="#1E4AAE"></path><path d="M83.5234 32.9214C84.7539 33.4048 85.3691 34.1299 85.3691 35.0967L87.4785 66.6714V68.8027C87.4785 69.8428 87.1782 70.4434 86.5776 70.6045H85.9404L85.0396 70.0112L85.3691 65.4629V64.5181C85.3691 55.7583 84.7539 47.9727 83.5234 41.1611H83.2378C82.0073 44.9697 80.689 51.6494 79.2827 61.2002L77.437 62.0791C76.3237 62.0791 75.6206 59.457 75.3276 54.2129C73.1011 47.46 71.6875 43.8125 71.0869 43.2705H70.7793L71.0869 47.8188V53.312C71.0869 66.0708 70.4717 72.4502 69.2412 72.4502H68.3403L68.0327 70.9121L69.2412 58.4536H68.9336L69.2412 58.168V54.2129C69.2412 44.5596 68.9409 39.0884 68.3403 37.7993C68.7358 36.8618 69.146 36.3638 69.5708 36.3052H70.4717C71.4824 36.3638 72.6982 39.396 74.1191 45.4019C75.1299 47.3208 76.2358 50.7705 77.437 55.751H78.3818L82.293 37.2061V36.3052L82.0293 34.4595C82.0293 33.6538 82.5273 33.251 83.5234 33.251V32.9214ZM96.0479 47.2915C97.9375 47.2915 99.2559 50.0015 100.003 55.4214L99.6953 55.7949V57.5967C99.1826 66.9277 97.564 71.5933 94.8394 71.5933L94.5098 71.8569H94.2021C91.1699 71.1685 89.6538 67.3159 89.6538 60.2993C89.6538 51.6274 91.7852 47.2915 96.0479 47.2915ZM91.4995 58.8052C91.9536 65.8804 92.8545 69.418 94.2021 69.418H94.5098C96.2236 69.418 97.3369 65.7778 97.8496 58.4976V54.2129C97.8496 51.4883 96.9487 49.9868 95.147 49.7085C92.7153 50.4263 91.4995 53.4585 91.4995 58.8052ZM98.8164 42.7651H99.4536V43.3584C97.4175 54.5791 94.9858 64.1006 92.1587 71.9229C91.7339 71.9229 91.5215 72.8384 91.5215 74.6694L90.6865 75.2627L89.1045 74.9551V73.7246C92.0488 67.8506 94.7954 58.5342 97.3442 45.7754C97.3442 44.3691 97.835 43.3657 98.8164 42.7651ZM112.088 37.4697C113.23 37.4697 113.934 37.9678 114.197 38.9639L113.582 41.1172C114.08 61.6689 114.542 71.7031 114.966 71.2197L113.978 71.9448C113.143 71.5786 112.696 71.3955 112.637 71.3955L112.352 58.7173L112.088 58.4097H111.78C110.55 66.9204 108.719 71.1758 106.287 71.1758H105.694C103.262 71.1758 102.046 68.7441 102.046 63.8809C102.046 60.3506 103.775 56.9009 107.232 53.5317C110.074 52.8726 111.495 51.7666 111.495 50.2139V45.9731L110.879 38.9639C111.26 38.0557 111.663 37.5576 112.088 37.4697ZM104.485 62.6724V65.6826C104.485 67.25 104.998 68.2754 106.023 68.7588H106.287C107.488 68.7588 108.909 64.2983 110.55 55.3774L110.286 55.0698H109.078C106.016 56.9302 104.485 59.4644 104.485 62.6724ZM143.948 35.5361C145.091 34.877 145.457 36.0342 145.047 39.0078C144.651 41.9814 144.036 46.0024 143.201 51.0708C142.381 56.1392 141.971 61.6836 141.971 67.7041L142.564 69.5498V70.1431L141.07 71.3516C140.206 71.3516 139.59 70.6338 139.224 69.1982C139.649 68.7148 140.286 63.0386 141.136 52.1694C142 41.3003 142.725 35.8657 143.311 35.8657H143.948V35.5361ZM156.868 37.4697C158.011 37.4697 158.714 37.9678 158.978 38.9639L158.362 41.1172C158.86 61.6689 159.322 71.7031 159.747 71.2197L158.758 71.9448C157.923 71.5786 157.476 71.3955 157.417 71.3955L157.132 58.7173L156.868 58.4097H156.561C155.33 66.9204 153.499 71.1758 151.067 71.1758H150.474C148.042 71.1758 146.827 68.7441 146.827 63.8809C146.827 60.3506 148.555 56.9009 152.012 53.5317C154.854 52.8726 156.275 51.7666 156.275 50.2139V45.9731L155.66 38.9639C156.041 38.0557 156.443 37.5576 156.868 37.4697ZM149.266 62.6724V65.6826C149.266 67.25 149.778 68.2754 150.804 68.7588H151.067C152.269 68.7588 153.689 64.2983 155.33 55.3774L155.066 55.0698H153.858C150.796 56.9302 149.266 59.4644 149.266 62.6724ZM169.129 47.0498H170.074L170.975 47.687L170.645 52.1914C171.216 62.958 172.132 68.3413 173.392 68.3413H173.985V68.605C173.985 69.7183 173.582 70.4434 172.776 70.7803H171.546C170.74 70.7803 170.037 68.5464 169.437 64.0786H169.129C167.957 70.978 166.141 74.4277 163.68 74.4277C162.273 74.4277 161.57 72.2817 161.57 67.9897V64.6938C161.57 55.3628 163.277 50.0967 166.69 48.8955C167.261 48.8955 168.074 48.2803 169.129 47.0498ZM163.68 63.749V67.9897C163.68 70.231 163.98 71.3516 164.581 71.3516C165.899 71.3516 167.217 66.0928 168.536 55.5752V55.2456C168.389 52.4038 168.089 50.9829 167.635 50.9829H166.69C164.683 50.9829 163.68 55.2383 163.68 63.749Z" fill="#EBCDD1"></path></svg>