<svg xmlns="http://www.w3.org/2000/svg" width="386" height="117" viewBox="0 0 386 117" fill="none"><path fill-rule="evenodd" clip-rule="evenodd" d="M2.23584 53.7451C9.17651 29.3784 38.8425 22.5236 86.5 10.2922C117.026 2.45751 186.746 19.4169 221 19.5C267.348 19.6124 320.737 -5.96502 348.646 10.3039C380.627 28.9465 388.49 57.7759 360.262 78.9722C334.017 98.6792 274.8 96.5735 226.327 102.152C181.781 107.278 137.309 117.958 97.055 109.262C47.9346 98.6514 -4.95081 78.9754 2.23584 53.7451Z" fill="#1E4AAE"></path><path d="M58.0908 26.3647L58.9917 27.5732V27.8369C58.9917 28.3789 57.0728 28.8916 53.2349 29.375C50.3784 30.2686 48.9502 32.0996 48.9502 34.8682L48.6426 41.5259L48.9502 42.4268L55.0366 40.9326L55.6519 41.5259V42.1411C55.6519 42.5952 54.1284 43.0933 51.0815 43.6353C51.0815 44.0308 50.481 44.3457 49.2798 44.5801C48.7378 44.5801 47.9248 50.5347 46.8408 62.4438L46.5332 64.5972V67.6733L44.7314 68.8818L43.1934 67.6733C45.4199 60.0122 46.5332 52.915 46.5332 46.3818C45.1123 45.9277 44.4019 45.415 44.4019 44.8438C44.4019 44.375 45.1123 43.7598 46.5332 42.998L46.8408 41.7896V36.0767L47.1484 31.2207L46.2036 29.6387C46.2036 29.0674 46.9287 28.3789 48.3789 27.5732L48.6426 27.8369H51.6968C54.8462 26.8555 56.9775 26.3647 58.0908 26.3647ZM62.5293 43.3276C64.4189 43.3276 65.7373 46.0376 66.4844 51.4575L66.1768 51.8311V53.6328C65.6641 62.9639 64.0454 67.6294 61.3208 67.6294L60.9912 67.8931H60.6836C57.6514 67.2046 56.1353 63.3521 56.1353 56.3354C56.1353 47.6636 58.2666 43.3276 62.5293 43.3276ZM57.981 54.8413C58.4351 61.9165 59.3359 65.4541 60.6836 65.4541H60.9912C62.7051 65.4541 63.8184 61.814 64.3311 54.5337V50.249C64.3311 47.5244 63.4302 46.0229 61.6284 45.7446C59.1968 46.4624 57.981 49.4946 57.981 54.8413ZM65.2979 38.8013H65.9351V39.3945C63.8989 50.6152 61.4673 60.1367 58.6401 67.959C58.2153 67.959 58.0029 68.8745 58.0029 70.7056L57.168 71.2988L55.5859 70.9912V69.7607C58.5303 63.8867 61.2769 54.5703 63.8257 41.8115C63.8257 40.4053 64.3164 39.4019 65.2979 38.8013ZM70.5713 31.5723L71.604 31.3086L71.3623 36.8457L71.2744 41.7896L71.5161 56.0059L71.2305 62.0923L71.8677 65.7397C71.8677 66.1206 71.3403 66.7358 70.2856 67.5854L68.8135 66.355C69.2236 65.3149 69.4287 63.1836 69.4287 59.9609V59.3896L69.8901 32.561C70.2417 31.9019 70.4688 31.5723 70.5713 31.5723ZM86.6113 42.5586H87.1826L88.1274 43.4595V44.9756C86.6919 47.6855 85.9741 51.0327 85.9741 55.0171L86.3477 72.9248C86.3477 82.0508 84.9194 86.6138 82.063 86.6138C82.063 87.0093 81.5503 87.207 80.5249 87.207C78.0933 86.6943 76.8774 85.5811 76.8774 83.8672V83.5596H77.4707C78.8184 84.5703 79.9463 85.0757 80.8545 85.0757C83.0664 85.0757 84.1724 81.7358 84.1724 75.0562V60.2026L83.9087 58.0273H83.2715C81.748 63.6963 79.5288 66.5308 76.6138 66.5308H76.2622C75.5737 66.4429 74.8853 64.9341 74.1968 62.0044C74.1968 55.9106 76.1011 50.5347 79.9097 45.8765L84.502 44.0967C84.502 43.0713 85.2051 42.5586 86.6113 42.5586ZM76.6138 58.3569V63.2129C76.6138 63.8135 77.0166 64.1138 77.8223 64.1138C79.4775 64.1138 81.5063 59.2505 83.9087 49.5239V46.8213C80.4517 46.8213 78.1079 49.8535 76.8774 55.918L76.6138 58.3569ZM126.821 41.2402C128.711 41.2402 130.044 47.4072 130.82 59.7412V65.8276L129.875 66.7725C129.011 66.7725 128.396 66.3623 128.03 65.542L128.667 59.1699C128.213 50.1025 127.51 45.437 126.558 45.1733H125.964C124.104 50.2124 123.174 56.687 123.174 64.5972L122.317 65.2344H121.108C120.742 65.2344 120.427 64.7217 120.164 63.6963C120.969 62.29 121.372 58.7524 121.372 53.0835C121.108 49.2456 120.61 47.3267 119.878 47.3267H119.526C117.9 47.3267 117.087 51.875 117.087 60.9717V63.3887L117.461 65.2344C117.007 66.4355 116.194 67.0361 115.022 67.0361L113.813 65.542L114.407 61.5869V60.0708L113.462 46.3818C113.462 45.2393 113.982 44.5361 115.022 44.2725C115.842 44.4775 116.252 45.0928 116.252 46.1182L115.615 47.9199V48.5352H115.879C117.476 45.4736 118.691 43.9429 119.526 43.9429C120.61 43.9429 121.738 45.0708 122.91 47.3267C123.32 47.3267 124.023 45.5981 125.02 42.1411L126.821 41.2402ZM138.994 41.6577C142.231 42.6099 143.85 44.2285 143.85 46.5137V47.4146C143.85 51.9409 141.821 55.0757 137.764 56.8188H135.698V57.4561C135.698 61.0889 136.599 63.623 138.401 65.0586H139.346C140.488 65.0586 142.107 63.4399 144.202 60.2026L144.465 60.4663H144.795C143.345 65.1392 141.316 67.4756 138.708 67.4756C136.335 67.4756 134.402 63.3228 132.908 55.0171C132.585 55.0171 132.388 54.5117 132.314 53.501C133.135 52.8711 133.86 50.2417 134.49 45.6128C136.042 42.9761 137.544 41.6577 138.994 41.6577ZM135.347 52.9077C135.522 53.9038 135.837 54.4019 136.292 54.4019H138.137C140.569 53.2593 141.785 50.9302 141.785 47.4146V47.1069C141.477 45.1001 140.547 44.0967 138.994 44.0967C136.562 44.0967 135.347 47.0337 135.347 52.9077ZM157.451 33.5059C158.594 33.5059 159.297 34.0039 159.561 35L158.945 37.1533C159.443 57.7051 159.905 67.7393 160.33 67.2559L159.341 67.981C158.506 67.6147 158.059 67.4316 158 67.4316L157.715 54.7534L157.451 54.4458H157.144C155.913 62.9565 154.082 67.2119 151.65 67.2119H151.057C148.625 67.2119 147.41 64.7803 147.41 59.917C147.41 56.3867 149.138 52.937 152.595 49.5679C155.437 48.9087 156.858 47.8027 156.858 46.25V42.0093L156.243 35C156.624 34.0918 157.026 33.5938 157.451 33.5059ZM149.849 58.7085V61.7188C149.849 63.2861 150.361 64.3115 151.387 64.7949H151.65C152.852 64.7949 154.272 60.3345 155.913 51.4136L155.649 51.106H154.441C151.379 52.9663 149.849 55.5005 149.849 58.7085ZM189.993 46.6016C192.087 46.6016 193.391 48.9453 193.904 53.6328C193.904 56.8701 191.685 61.0083 187.246 66.0474V66.3989C187.246 70.9985 187.561 76.2646 188.191 82.1973L187.246 82.7905H186.982C185.752 82.7905 185.137 81.6626 185.137 79.4067L184.807 76.7041L185.137 76.3965V76.1328L184.192 66.3989L184.543 64.5532V58.1812L184.807 54.5337H184.543C185.598 49.2456 187.415 46.6016 189.993 46.6016ZM186.982 57.5439V63.0371H187.246C190.308 60.1221 191.838 56.6724 191.838 52.688C191.033 50.2563 190.315 49.0405 189.685 49.0405H189.399C187.788 50.3589 186.982 53.1934 186.982 57.5439ZM205.396 43.0859H206.34L207.241 43.7231L206.912 48.2275C207.483 58.9941 208.398 64.3774 209.658 64.3774H210.251V64.6411C210.251 65.7544 209.849 66.4795 209.043 66.8164H207.812C207.007 66.8164 206.304 64.5825 205.703 60.1147H205.396C204.224 67.0142 202.407 70.4639 199.946 70.4639C198.54 70.4639 197.837 68.3179 197.837 64.0259V60.73C197.837 51.3989 199.543 46.1328 202.957 44.9316C203.528 44.9316 204.341 44.3164 205.396 43.0859ZM199.946 59.7852V64.0259C199.946 66.2671 200.247 67.3877 200.847 67.3877C202.166 67.3877 203.484 62.1289 204.802 51.6113V51.2817C204.656 48.4399 204.355 47.019 203.901 47.019H202.957C200.95 47.019 199.946 51.2744 199.946 59.7852ZM204.648 36.2305C206.187 36.2305 207.461 37.4023 208.472 39.7461C208.472 42.8076 206.868 44.5947 203.66 45.1074H203.44C200.613 45.1074 198.943 43.9062 198.43 41.5039V41.0864C198.43 38.3911 200.027 36.8164 203.22 36.3623C204.172 36.3623 204.648 36.3184 204.648 36.2305ZM199.88 40.0977V40.7349C199.88 42.6538 200.752 43.8989 202.495 44.4702H202.935C205.249 44.4702 206.604 43.0786 207 40.2954C207 38.5522 206.143 37.5269 204.429 37.2192L203.44 37.0435C201.462 37.2192 200.276 38.2373 199.88 40.0977ZM238.223 38.6914C238.999 38.6914 239.717 39.0942 240.376 39.8999C240.376 40.5005 239.658 41.2036 238.223 42.0093C237.681 42.0093 237.183 41.5186 236.729 40.5371C237.124 39.4238 237.622 38.8086 238.223 38.6914ZM238.223 46.6016L239.167 47.832C238.362 48.6377 237.959 50.8569 237.959 54.4897C238.047 58.3276 238.64 62.063 239.739 65.6958V66.311L238.86 67.2559H237.959C236.992 67.2559 236.267 62.4878 235.784 52.9517C235.784 48.7183 236.399 46.6016 237.629 46.6016H238.223ZM249.011 40.3613H249.275C251.677 40.3613 253.098 44.9023 253.538 53.9844V59.4775L253.867 62.7954L253.538 64.0259L253.867 66.7725L252.922 67.3438C251.926 67.0801 251.428 66.377 251.428 65.2344V55.1929C251.428 48.1177 250.71 44.2798 249.275 43.6792H249.011C246.843 44.7925 245.518 49.2456 245.034 57.0386V65.542L245.364 66.7725C244.939 67.9736 244.529 68.5742 244.133 68.5742C243.123 68.5742 242.507 68.1641 242.288 67.3438L242.617 59.1699L241.716 45.481V43.6792L242.925 42.4707C243.73 42.7637 244.133 43.064 244.133 43.3716L243.826 47.9199L244.133 48.2275H244.727C244.727 45.2539 246.155 42.6318 249.011 40.3613ZM265.403 41.7456L265.732 42.0972V42.6904C261.88 45.415 259.954 48.2495 259.954 51.1938V51.8311C259.954 53.9844 261.682 57.0093 265.139 60.9058L265.403 62.1362C263.938 65.9741 261.104 67.8931 256.899 67.8931C254.688 67.8931 253.582 67.0801 253.582 65.4541L257.207 65.7837H258.438C261.279 65.0952 262.7 63.8794 262.7 62.1362V61.8066C262.7 61.3086 261.279 58.9868 258.438 54.8413L257.537 51.4575C257.537 47.7368 259.968 44.4995 264.832 41.7456H265.403ZM270.303 30.8032L270.984 30.7593L271.116 32.9346V33.2422C271.116 37.8857 271.416 40.2075 272.017 40.2075L274.983 39.2188C275.188 39.6436 275.386 40.083 275.576 40.5371C275.21 40.8594 275.129 41.0645 275.334 41.1523L271.687 42.9541L272.324 58.7524V59.9609C272.266 62.9346 272.053 65.3223 271.687 67.124L270.259 67.0361L270.171 62.312V54.7974V51.4575C270.171 46.2134 269.871 43.5913 269.27 43.5913L266.479 43.811L265.491 43.4155L265.579 42.6904L266.106 42.5586H266.699C268.618 42.2803 269.578 41.6064 269.578 40.5371L268.94 31.4404L269.27 31.1768L270.303 30.8032ZM284.497 43.0859H285.442L286.343 43.7231L286.013 48.2275C286.584 58.9941 287.5 64.3774 288.76 64.3774H289.353V64.6411C289.353 65.7544 288.95 66.4795 288.145 66.8164H286.914C286.108 66.8164 285.405 64.5825 284.805 60.1147H284.497C283.325 67.0142 281.509 70.4639 279.048 70.4639C277.642 70.4639 276.938 68.3179 276.938 64.0259V60.73C276.938 51.3989 278.645 46.1328 282.058 44.9316C282.629 44.9316 283.442 44.3164 284.497 43.0859ZM279.048 59.7852V64.0259C279.048 66.2671 279.348 67.3877 279.949 67.3877C281.267 67.3877 282.585 62.1289 283.904 51.6113V51.2817C283.757 48.4399 283.457 47.019 283.003 47.019H282.058C280.051 47.019 279.048 51.2744 279.048 59.7852ZM303.613 42.5586H304.185L305.129 43.4595V44.9756C303.694 47.6855 302.976 51.0327 302.976 55.0171L303.35 72.9248C303.35 82.0508 301.921 86.6138 299.065 86.6138C299.065 87.0093 298.552 87.207 297.527 87.207C295.095 86.6943 293.879 85.5811 293.879 83.8672V83.5596H294.473C295.82 84.5703 296.948 85.0757 297.856 85.0757C300.068 85.0757 301.174 81.7358 301.174 75.0562V60.2026L300.911 58.0273H300.273C298.75 63.6963 296.531 66.5308 293.616 66.5308H293.264C292.576 66.4429 291.887 64.9341 291.199 62.0044C291.199 55.9106 293.103 50.5347 296.912 45.8765L301.504 44.0967C301.504 43.0713 302.207 42.5586 303.613 42.5586ZM293.616 58.3569V63.2129C293.616 63.8135 294.019 64.1138 294.824 64.1138C296.479 64.1138 298.508 59.2505 300.911 49.5239V46.8213C297.454 46.8213 295.11 49.8535 293.879 55.918L293.616 58.3569ZM315.742 42.9541H316.643L317.874 44.1846V44.7998L317.236 45.3931L315.742 45.0854C312.505 49.3628 310.886 53.4131 310.886 57.2363V62.0923L311.172 65.4541C311.172 66.2744 310.674 66.6846 309.678 66.6846V66.9482C308.872 66.6406 308.469 66.3403 308.469 66.0474V62.7075C307.708 52.9956 307.092 48.1396 306.624 48.1396C307.034 46.9092 307.437 46.2939 307.832 46.2939H308.14C308.96 46.6162 309.37 47.334 309.37 48.4473V51.7871H309.678C311.685 47.4072 313.706 44.4629 315.742 42.9541ZM327.915 43.0859H328.86L329.761 43.7231L329.431 48.2275C330.002 58.9941 330.918 64.3774 332.178 64.3774H332.771V64.6411C332.771 65.7544 332.368 66.4795 331.562 66.8164H330.332C329.526 66.8164 328.823 64.5825 328.223 60.1147H327.915C326.743 67.0142 324.927 70.4639 322.466 70.4639C321.06 70.4639 320.356 68.3179 320.356 64.0259V60.73C320.356 51.3989 322.063 46.1328 325.476 44.9316C326.047 44.9316 326.86 44.3164 327.915 43.0859ZM322.466 59.7852V64.0259C322.466 66.2671 322.766 67.3877 323.367 67.3877C324.685 67.3877 326.003 62.1289 327.322 51.6113V51.2817C327.175 48.4399 326.875 47.019 326.421 47.019H325.476C323.469 47.019 322.466 51.2744 322.466 59.7852ZM348.877 41.2402C350.767 41.2402 352.1 47.4072 352.876 59.7412V65.8276L351.931 66.7725C351.067 66.7725 350.452 66.3623 350.085 65.542L350.723 59.1699C350.269 50.1025 349.565 45.437 348.613 45.1733H348.02C346.16 50.2124 345.229 56.687 345.229 64.5972L344.373 65.2344H343.164C342.798 65.2344 342.483 64.7217 342.219 63.6963C343.025 62.29 343.428 58.7524 343.428 53.0835C343.164 49.2456 342.666 47.3267 341.934 47.3267H341.582C339.956 47.3267 339.143 51.875 339.143 60.9717V63.3887L339.517 65.2344C339.062 66.4355 338.25 67.0361 337.078 67.0361L335.869 65.542L336.462 61.5869V60.0708L335.518 46.3818C335.518 45.2393 336.038 44.5361 337.078 44.2725C337.898 44.4775 338.308 45.0928 338.308 46.1182L337.671 47.9199V48.5352H337.935C339.531 45.4736 340.747 43.9429 341.582 43.9429C342.666 43.9429 343.794 45.0708 344.966 47.3267C345.376 47.3267 346.079 45.5981 347.075 42.1411L348.877 41.2402Z" fill="#EBCDD1"></path></svg>