<svg xmlns="http://www.w3.org/2000/svg" width="297" height="109" viewBox="0 0 297 109" fill="none"><path fill-rule="evenodd" clip-rule="evenodd" d="M1.8983 52.7629C7.24281 31.1627 60.754 24.8211 97.9275 14.1143C121.738 7.25627 145.611 3.48818 172.356 3.66731C208.545 3.90969 250.401 0.759917 272.242 15.2818C297.271 31.9224 303.499 57.528 281.523 76.2494C261.091 93.6554 214.848 91.6048 177.018 96.4054C142.252 100.817 107.561 110.157 76.1036 102.317C37.7178 92.7505 -3.63563 75.1285 1.8983 52.7629Z" fill="#1E4AAE"></path><path d="M82.5234 31.9214C83.7539 32.4048 84.3691 33.1299 84.3691 34.0967L86.4785 65.6714V67.8027C86.4785 68.8428 86.1782 69.4434 85.5776 69.6045H84.9404L84.0396 69.0112L84.3691 64.4629V63.5181C84.3691 54.7583 83.7539 46.9727 82.5234 40.1611H82.2378C81.0073 43.9697 79.689 50.6494 78.2827 60.2002L76.437 61.0791C75.3237 61.0791 74.6206 58.457 74.3276 53.2129C72.1011 46.46 70.6875 42.8125 70.0869 42.2705H69.7793L70.0869 46.8188V52.312C70.0869 65.0708 69.4717 71.4502 68.2412 71.4502H67.3403L67.0327 69.9121L68.2412 57.4536H67.9336L68.2412 57.168V53.2129C68.2412 43.5596 67.9409 38.0884 67.3403 36.7993C67.7358 35.8618 68.146 35.3638 68.5708 35.3052H69.4717C70.4824 35.3638 71.6982 38.396 73.1191 44.4019C74.1299 46.3208 75.2358 49.7705 76.437 54.751H77.3818L81.293 36.2061V35.3052L81.0293 33.4595C81.0293 32.6538 81.5273 32.251 82.5234 32.251V31.9214ZM95.0479 46.2915C96.9375 46.2915 98.2559 49.0015 99.0029 54.4214L98.6953 54.7949V56.5967C98.1826 65.9277 96.564 70.5933 93.8394 70.5933L93.5098 70.8569H93.2021C90.1699 70.1685 88.6538 66.3159 88.6538 59.2993C88.6538 50.6274 90.7852 46.2915 95.0479 46.2915ZM90.4995 57.8052C90.9536 64.8804 91.8545 68.418 93.2021 68.418H93.5098C95.2236 68.418 96.3369 64.7778 96.8496 57.4976V53.2129C96.8496 50.4883 95.9487 48.9868 94.147 48.7085C91.7153 49.4263 90.4995 52.4585 90.4995 57.8052ZM97.8164 41.7651H98.4536V42.3584C96.4175 53.5791 93.9858 63.1006 91.1587 70.9229C90.7339 70.9229 90.5215 71.8384 90.5215 73.6694L89.6865 74.2627L88.1045 73.9551V72.7246C91.0488 66.8506 93.7954 57.5342 96.3442 44.7754C96.3442 43.3691 96.835 42.3657 97.8164 41.7651ZM111.088 36.4697C112.23 36.4697 112.934 36.9678 113.197 37.9639L112.582 40.1172C113.08 60.6689 113.542 70.7031 113.966 70.2197L112.978 70.9448C112.143 70.5786 111.696 70.3955 111.637 70.3955L111.352 57.7173L111.088 57.4097H110.78C109.55 65.9204 107.719 70.1758 105.287 70.1758H104.694C102.262 70.1758 101.046 67.7441 101.046 62.8809C101.046 59.3506 102.775 55.9009 106.232 52.5317C109.074 51.8726 110.495 50.7666 110.495 49.2139V44.9731L109.879 37.9639C110.26 37.0557 110.663 36.5576 111.088 36.4697ZM103.485 61.6724V64.6826C103.485 66.25 103.998 67.2754 105.023 67.7588H105.287C106.488 67.7588 107.909 63.2983 109.55 54.3774L109.286 54.0698H108.078C105.016 55.9302 103.485 58.4644 103.485 61.6724ZM148.573 31.0205H149.167L148.837 34.3604L148.749 50.2905C148.28 63.0347 146.559 69.4067 143.585 69.4067C143.585 69.8022 142.685 70 140.883 70C138.847 69.6338 137.829 68.2202 137.829 65.7593L138.136 64.5508H139.037C139.521 66.7773 140.136 67.8906 140.883 67.8906H142.685C145.087 67.8906 146.508 61.709 146.947 49.3457V49.082L147.057 34.3604C147.438 32.1338 147.943 31.0205 148.573 31.0205ZM157.626 46.2915C159.516 46.2915 160.834 49.0015 161.581 54.4214L161.273 54.7949V56.5967C160.761 65.9277 159.142 70.5933 156.417 70.5933L156.088 70.8569H155.78C152.748 70.1685 151.232 66.3159 151.232 59.2993C151.232 50.6274 153.363 46.2915 157.626 46.2915ZM153.078 57.8052C153.532 64.8804 154.433 68.418 155.78 68.418H156.088C157.802 68.418 158.915 64.7778 159.428 57.4976V53.2129C159.428 50.4883 158.527 48.9868 156.725 48.7085C154.293 49.4263 153.078 52.4585 153.078 57.8052ZM172.853 44.7095L173.183 45.061V45.6543C169.33 48.3789 167.404 51.2134 167.404 54.1577V54.7949C167.404 56.9482 169.132 59.9731 172.589 63.8696L172.853 65.1001C171.388 68.938 168.554 70.8569 164.35 70.8569C162.138 70.8569 161.032 70.0439 161.032 68.418L164.657 68.7476H165.888C168.729 68.0591 170.15 66.8433 170.15 65.1001V64.7705C170.15 64.2725 168.729 61.9507 165.888 57.8052L164.987 54.4214C164.987 50.7007 167.418 47.4634 172.282 44.7095H172.853ZM181.137 44.6216C184.374 45.5737 185.993 47.1924 185.993 49.4775V50.3784C185.993 54.9048 183.964 58.0396 179.906 59.7827H177.841V60.4199C177.841 64.0527 178.742 66.5869 180.543 68.0225H181.488C182.631 68.0225 184.25 66.4038 186.344 63.1665L186.608 63.4302H186.938C185.487 68.103 183.458 70.4395 180.851 70.4395C178.478 70.4395 176.544 66.2866 175.05 57.981C174.728 57.981 174.53 57.4756 174.457 56.4648C175.277 55.835 176.002 53.2056 176.632 48.5767C178.185 45.9399 179.687 44.6216 181.137 44.6216ZM177.489 55.8716C177.665 56.8677 177.98 57.3657 178.434 57.3657H180.28C182.711 56.2231 183.927 53.894 183.927 50.3784V50.0708C183.62 48.064 182.689 47.0605 181.137 47.0605C178.705 47.0605 177.489 49.9976 177.489 55.8716ZM194.738 49.5654C196.833 49.5654 198.136 51.9092 198.649 56.5967C198.649 59.834 196.43 63.9722 191.991 69.0112V69.3628C191.991 73.9624 192.306 79.2285 192.936 85.1611L191.991 85.7544H191.728C190.497 85.7544 189.882 84.6265 189.882 82.3706L189.552 79.668L189.882 79.3604V79.0967L188.937 69.3628L189.289 67.5171V61.145L189.552 57.4976H189.289C190.343 52.2095 192.16 49.5654 194.738 49.5654ZM191.728 60.5078V66.001H191.991C195.053 63.0859 196.583 59.6362 196.583 55.6519C195.778 53.2202 195.06 52.0044 194.43 52.0044H194.145C192.533 53.3228 191.728 56.1572 191.728 60.5078ZM202.934 33.811H203.834L204.735 34.7119V35.0415L204.142 37.4585V39.5898L204.735 54.7949L205.043 55.6958H205.636C206.984 50.6274 209.013 48.0933 211.723 48.0933C213.671 48.0933 214.792 53.667 215.084 64.8145L215.678 68.1543L214.777 69.6924C213.722 69.6924 213.107 68.667 212.931 66.6162V64.5068C212.931 55.3955 212.118 50.8398 210.492 50.8398C208.002 51.792 206.486 56.6479 205.944 65.4077C206.076 68.2642 206.288 69.6924 206.581 69.6924C206.156 70.5859 205.753 71.0767 205.373 71.1646H204.428C203.432 70.5933 202.934 69.7876 202.934 68.7476L203.527 67.2534C202.677 46.3794 201.864 35.9424 201.088 35.9424C201.425 35.0342 202.04 34.3237 202.934 33.811ZM220.336 41.6553C221.112 41.6553 221.83 42.0581 222.489 42.8638C222.489 43.4644 221.771 44.1675 220.336 44.9731C219.794 44.9731 219.296 44.4824 218.842 43.501C219.237 42.3877 219.735 41.7725 220.336 41.6553ZM220.336 49.5654L221.281 50.7959C220.475 51.6016 220.072 53.8208 220.072 57.4536C220.16 61.2915 220.753 65.0269 221.852 68.6597V69.2749L220.973 70.2197H220.072C219.105 70.2197 218.38 65.4517 217.897 55.9155C217.897 51.6821 218.512 49.5654 219.743 49.5654H220.336ZM231.125 43.3252H231.388C233.791 43.3252 235.211 47.8662 235.651 56.9482V62.4414L235.98 65.7593L235.651 66.9897L235.98 69.7363L235.036 70.3076C234.04 70.0439 233.542 69.3408 233.542 68.1982V58.1567C233.542 51.0815 232.824 47.2437 231.388 46.6431H231.125C228.957 47.7563 227.631 52.2095 227.147 60.0024V68.5059L227.477 69.7363C227.052 70.9375 226.642 71.5381 226.247 71.5381C225.236 71.5381 224.621 71.1279 224.401 70.3076L224.73 62.1338L223.83 48.4448V46.6431L225.038 45.4346C225.844 45.7275 226.247 46.0278 226.247 46.3354L225.939 50.8838L226.247 51.1914H226.84C226.84 48.2178 228.268 45.5957 231.125 43.3252ZM244.11 44.6216C247.348 45.5737 248.966 47.1924 248.966 49.4775V50.3784C248.966 54.9048 246.938 58.0396 242.88 59.7827H240.814V60.4199C240.814 64.0527 241.715 66.5869 243.517 68.0225H244.462C245.604 68.0225 247.223 66.4038 249.318 63.1665L249.582 63.4302H249.911C248.461 68.103 246.432 70.4395 243.825 70.4395C241.452 70.4395 239.518 66.2866 238.024 57.981C237.702 57.981 237.504 57.4756 237.431 56.4648C238.251 55.835 238.976 53.2056 239.606 48.5767C241.159 45.9399 242.66 44.6216 244.11 44.6216ZM240.463 55.8716C240.639 56.8677 240.954 57.3657 241.408 57.3657H243.253C245.685 56.2231 246.901 53.894 246.901 50.3784V50.0708C246.593 48.064 245.663 47.0605 244.11 47.0605C241.679 47.0605 240.463 49.9976 240.463 55.8716Z" fill="#EBCDD1"></path></svg>