<svg xmlns="http://www.w3.org/2000/svg" width="329" height="113" viewBox="0 0 329 113" fill="none"><path fill-rule="evenodd" clip-rule="evenodd" d="M1.98874 54.8987C7.77043 32.5665 65.3977 25.9451 105.438 14.8323C131.086 7.71426 156.796 3.78984 185.594 3.94162C224.561 4.147 269.634 0.839228 293.135 15.8216C320.064 32.9899 326.738 59.4478 303.052 78.8254C281.03 96.8415 231.239 94.7796 190.498 99.7887C153.058 104.392 115.692 114.088 81.8293 106.025C40.5084 96.1848 -3.99787 78.0225 1.98874 54.8987Z" fill="#1E4AAE"></path><path d="M41.0244 36.9541C41.6836 37.1738 42.0938 37.584 42.2549 38.1846L41.6177 42.7329V58.5093H42.5186C47.3818 49.9985 49.8135 44.1392 49.8135 40.9312C50.6777 40.1108 51.4834 39.7007 52.2305 39.7007L53.4609 41.2388C52.04 43.187 48.7954 49.6689 43.7271 60.6846V61.5854C45.4702 69.0854 47.814 72.8354 50.7583 72.8354V74.0439L49.2202 74.3076C46.7886 74.3076 44.3569 70.77 41.9253 63.6948H41.6177L40.0796 76.7466L39.8159 77.0542H38.6074C38.0947 77.0542 37.7798 76.6514 37.6626 75.8457C38.3804 75.8457 39.0981 68.7632 39.8159 54.5981L39.5083 37.855L41.0244 36.9541ZM59.7012 50.2915C61.5908 50.2915 62.9092 53.0015 63.6562 58.4214L63.3486 58.7949V60.5967C62.8359 69.9277 61.2173 74.5933 58.4927 74.5933L58.1631 74.8569H57.8555C54.8232 74.1685 53.3071 70.3159 53.3071 63.2993C53.3071 54.6274 55.4385 50.2915 59.7012 50.2915ZM55.1528 61.8052C55.6069 68.8804 56.5078 72.418 57.8555 72.418H58.1631C59.877 72.418 60.9902 68.7778 61.5029 61.4976V57.2129C61.5029 54.4883 60.6021 52.9868 58.8003 52.7085C56.3687 53.4263 55.1528 56.4585 55.1528 61.8052ZM62.4697 45.7651H63.1069V46.3584C61.0708 57.5791 58.6392 67.1006 55.812 74.9229C55.3872 74.9229 55.1748 75.8384 55.1748 77.6694L54.3398 78.2627L52.7578 77.9551V76.7246C55.7021 70.8506 58.4487 61.5342 60.9976 48.7754C60.9976 47.3691 61.4883 46.3657 62.4697 45.7651ZM66.9302 37.6353L68.4463 38.5801L68.1387 41.2827L69.3472 56.4438H69.6768C71.4346 54.0122 72.9434 52.7964 74.2031 52.7964H75.1479C77.5796 54.8765 78.7954 57.0225 78.7954 59.2344C77.4185 65.958 74.9941 71.0117 71.5225 74.3955L71.1489 74.6812C70.3433 74.4907 69.9404 73.9927 69.9404 73.187H69.3472C67.853 73.187 67.0474 72.8721 66.9302 72.2422V71.9785L67.5015 69.5396C67.5015 55.7114 66.813 45.5894 65.436 39.1733C65.436 38.6313 65.9341 38.1187 66.9302 37.6353ZM70.292 71.9785L70.5776 72.2422C72.4673 71.1289 74.1885 68.0088 75.7412 62.8818L76.3784 60.4648C76.3784 56.9785 75.4482 55.2354 73.5879 55.2354C71.6689 55.2354 70.5703 60.8164 70.292 71.9785ZM117.27 48.2041C119.159 48.2041 120.492 54.3711 121.269 66.7051V72.7915L120.324 73.7363C119.459 73.7363 118.844 73.3262 118.478 72.5059L119.115 66.1338C118.661 57.0664 117.958 52.4009 117.006 52.1372H116.413C114.552 57.1763 113.622 63.6509 113.622 71.561L112.765 72.1982H111.557C111.19 72.1982 110.875 71.6855 110.612 70.6602C111.417 69.2539 111.82 65.7163 111.82 60.0474C111.557 56.2095 111.059 54.2905 110.326 54.2905H109.975C108.349 54.2905 107.536 58.8389 107.536 67.9355V70.3525L107.909 72.1982C107.455 73.3994 106.642 74 105.47 74L104.262 72.5059L104.855 68.5508V67.0347L103.91 53.3457C103.91 52.2031 104.43 51.5 105.47 51.2363C106.291 51.4414 106.701 52.0566 106.701 53.082L106.063 54.8838V55.499H106.327C107.924 52.4375 109.14 50.9067 109.975 50.9067C111.059 50.9067 112.187 52.0347 113.358 54.2905C113.769 54.2905 114.472 52.562 115.468 49.105L117.27 48.2041ZM125.971 45.6553C126.747 45.6553 127.465 46.0581 128.124 46.8638C128.124 47.4644 127.406 48.1675 125.971 48.9731C125.429 48.9731 124.931 48.4824 124.477 47.501C124.872 46.3877 125.37 45.7725 125.971 45.6553ZM125.971 53.5654L126.916 54.7959C126.11 55.6016 125.707 57.8208 125.707 61.4536C125.795 65.2915 126.388 69.0269 127.487 72.6597V73.2749L126.608 74.2197H125.707C124.74 74.2197 124.015 69.4517 123.532 59.9155C123.532 55.6821 124.147 53.5654 125.377 53.5654H125.971ZM136.759 47.3252H137.023C139.425 47.3252 140.846 51.8662 141.286 60.9482V66.4414L141.615 69.7593L141.286 70.9897L141.615 73.7363L140.67 74.3076C139.674 74.0439 139.176 73.3408 139.176 72.1982V62.1567C139.176 55.0815 138.458 51.2437 137.023 50.6431H136.759C134.591 51.7563 133.266 56.2095 132.782 64.0024V72.5059L133.112 73.7363C132.687 74.9375 132.277 75.5381 131.881 75.5381C130.871 75.5381 130.255 75.1279 130.036 74.3076L130.365 66.1338L129.464 52.4448V50.6431L130.673 49.4346C131.479 49.7275 131.881 50.0278 131.881 50.3354L131.574 54.8838L131.881 55.1914H132.475C132.475 52.2178 133.903 49.5957 136.759 47.3252ZM149.745 48.6216C152.982 49.5737 154.601 51.1924 154.601 53.4775V54.3784C154.601 58.9048 152.572 62.0396 148.515 63.7827H146.449V64.4199C146.449 68.0527 147.35 70.5869 149.152 72.0225H150.097C151.239 72.0225 152.858 70.4038 154.953 67.1665L155.216 67.4302H155.546C154.096 72.103 152.067 74.4395 149.459 74.4395C147.086 74.4395 145.153 70.2866 143.659 61.981C143.336 61.981 143.139 61.4756 143.065 60.4648C143.886 59.835 144.611 57.2056 145.241 52.5767C146.793 49.9399 148.295 48.6216 149.745 48.6216ZM146.098 59.8716C146.273 60.8677 146.588 61.3657 147.042 61.3657H148.888C151.32 60.2231 152.536 57.894 152.536 54.3784V54.0708C152.228 52.064 151.298 51.0605 149.745 51.0605C147.313 51.0605 146.098 53.9976 146.098 59.8716ZM186.417 53.5654C188.512 53.5654 189.816 55.9092 190.329 60.5967C190.329 63.834 188.109 67.9722 183.671 73.0112V73.3628C183.671 77.9624 183.986 83.2285 184.616 89.1611L183.671 89.7544H183.407C182.177 89.7544 181.562 88.6265 181.562 86.3706L181.232 83.668L181.562 83.3604V83.0967L180.617 73.3628L180.968 71.5171V65.145L181.232 61.4976H180.968C182.023 56.2095 183.839 53.5654 186.417 53.5654ZM183.407 64.5078V70.001H183.671C186.732 67.0859 188.263 63.6362 188.263 59.6519C187.458 57.2202 186.74 56.0044 186.11 56.0044H185.824C184.213 57.3228 183.407 60.1572 183.407 64.5078ZM202.392 49.918H203.292L204.523 51.1484V51.7637L203.886 52.3569L202.392 52.0493C199.154 56.3267 197.536 60.377 197.536 64.2002V69.0562L197.821 72.418C197.821 73.2383 197.323 73.6484 196.327 73.6484V73.9121C195.521 73.6045 195.119 73.3042 195.119 73.0112V69.6714C194.357 59.9595 193.742 55.1035 193.273 55.1035C193.683 53.873 194.086 53.2578 194.481 53.2578H194.789C195.609 53.5801 196.02 54.2979 196.02 55.4111V58.751H196.327C198.334 54.3711 200.355 51.4268 202.392 49.918ZM212.763 50.2915C214.652 50.2915 215.971 53.0015 216.718 58.4214L216.41 58.7949V60.5967C215.897 69.9277 214.279 74.5933 211.554 74.5933L211.225 74.8569H210.917C207.885 74.1685 206.369 70.3159 206.369 63.2993C206.369 54.6274 208.5 50.2915 212.763 50.2915ZM208.214 61.8052C208.668 68.8804 209.569 72.418 210.917 72.418H211.225C212.938 72.418 214.052 68.7778 214.564 61.4976V57.2129C214.564 54.4883 213.664 52.9868 211.862 52.7085C209.43 53.4263 208.214 56.4585 208.214 61.8052ZM228.803 40.4697C229.945 40.4697 230.648 40.9678 230.912 41.9639L230.297 44.1172C230.795 64.6689 231.256 74.7031 231.681 74.2197L230.692 74.9448C229.857 74.5786 229.411 74.3955 229.352 74.3955L229.066 61.7173L228.803 61.4097H228.495C227.265 69.9204 225.434 74.1758 223.002 74.1758H222.409C219.977 74.1758 218.761 71.7441 218.761 66.8809C218.761 63.3506 220.49 59.9009 223.947 56.5317C226.789 55.8726 228.209 54.7666 228.209 53.2139V48.9731L227.594 41.9639C227.975 41.0557 228.378 40.5576 228.803 40.4697ZM221.2 65.6724V68.6826C221.2 70.25 221.713 71.2754 222.738 71.7588H223.002C224.203 71.7588 225.624 67.2983 227.265 58.3774L227.001 58.0698H225.792C222.731 59.9302 221.2 62.4644 221.2 65.6724ZM243.261 51.5439L243.854 52.1812L243.261 54.5981V55.543L243.524 57.9819C242.719 68.895 241.012 74.3516 238.405 74.3516C235.739 74.3516 233.805 69.1807 232.604 58.8389V57.0371C232.604 55.499 233.007 54.5981 233.812 54.3345H234.45L235.351 54.9277L235.021 57.0371V60.0474C235.021 64.0757 235.937 68.0381 237.768 71.9346H238.405C239.811 71.3633 240.712 67.5254 241.107 60.4209V57.3447C241.107 55.9092 240.91 54.7886 240.514 53.9829C240.514 52.6938 241.43 51.8809 243.261 51.5439ZM246.337 41.2827C247.23 41.6489 247.743 42.0518 247.875 42.4912L247.238 45.8311L247.875 58.5752H248.139C249.574 57.4912 251.405 54.7593 253.632 50.3794L253.939 50.0498H254.533L255.741 51.2803V51.8955C251.083 58.1357 248.754 61.6807 248.754 62.5303V62.8379C248.754 65.2988 251.786 68.5361 257.851 72.5498H258.158L260.004 71.9346V73.1431C259.623 73.8608 259.008 74.3735 258.158 74.6812C256.342 74.2856 253.207 71.854 248.754 67.3862L248.446 67.6938V69.4956C248.534 71.0044 248.834 72.0225 249.347 72.5498C248.952 73.751 248.549 74.3516 248.139 74.3516H247.545L246.029 72.8794L246.337 70.7041V68.2871C246.337 64.8594 246.125 63.1455 245.7 63.1455L246.029 61.937L245.128 43.0845H244.799C244.799 42.7183 245.312 42.1177 246.337 41.2827ZM264.354 37.7671L265.036 37.7231L265.167 39.8984V40.2061C265.167 44.8496 265.468 47.1714 266.068 47.1714L269.035 46.1826C269.24 46.6074 269.438 47.0469 269.628 47.501C269.262 47.8232 269.181 48.0283 269.386 48.1162L265.739 49.918L266.376 65.7163V66.9248C266.317 69.8984 266.105 72.2861 265.739 74.0879L264.311 74L264.223 69.2759V61.7612V58.4214C264.223 53.1772 263.922 50.5552 263.322 50.5552L260.531 50.7749L259.542 50.3794L259.63 49.6543L260.158 49.5225H260.751C262.67 49.2441 263.629 48.5703 263.629 47.501L262.992 38.4043L263.322 38.1406L264.354 37.7671ZM276.396 48.6216C279.633 49.5737 281.251 51.1924 281.251 53.4775V54.3784C281.251 58.9048 279.223 62.0396 275.165 63.7827H273.1V64.4199C273.1 68.0527 274 70.5869 275.802 72.0225H276.747C277.89 72.0225 279.508 70.4038 281.603 67.1665L281.867 67.4302H282.196C280.746 72.103 278.717 74.4395 276.11 74.4395C273.737 74.4395 271.803 70.2866 270.309 61.981C269.987 61.981 269.789 61.4756 269.716 60.4648C270.536 59.835 271.261 57.2056 271.891 52.5767C273.444 49.9399 274.945 48.6216 276.396 48.6216ZM272.748 59.8716C272.924 60.8677 273.239 61.3657 273.693 61.3657H275.539C277.97 60.2231 279.186 57.894 279.186 54.3784V54.0708C278.878 52.064 277.948 51.0605 276.396 51.0605C273.964 51.0605 272.748 53.9976 272.748 59.8716ZM293.358 49.918H294.259L295.49 51.1484V51.7637L294.853 52.3569L293.358 52.0493C290.121 56.3267 288.502 60.377 288.502 64.2002V69.0562L288.788 72.418C288.788 73.2383 288.29 73.6484 287.294 73.6484V73.9121C286.488 73.6045 286.085 73.3042 286.085 73.0112V69.6714C285.324 59.9595 284.708 55.1035 284.24 55.1035C284.65 53.873 285.053 53.2578 285.448 53.2578H285.756C286.576 53.5801 286.986 54.2979 286.986 55.4111V58.751H287.294C289.301 54.3711 291.322 51.4268 293.358 49.918Z" fill="#EBCDD1"></path></svg>