<svg xmlns="http://www.w3.org/2000/svg" width="230" height="109" viewBox="0 0 230 109" fill="none"><path fill-rule="evenodd" clip-rule="evenodd" d="M1.46948 52.7629C5.60716 31.1627 47.0352 24.8211 75.8147 14.1143C94.2489 7.25627 112.731 3.48818 133.437 3.66731C161.454 3.90969 193.859 0.759912 210.768 15.2818C230.145 31.9224 234.967 57.528 217.953 76.2494C202.135 93.6554 166.334 91.6048 137.046 96.4054C110.13 100.817 83.2729 110.157 58.9187 102.317C29.2007 92.7505 -2.81486 75.1285 1.46948 52.7629Z" fill="#1E4AAE"></path><path d="M68.5234 27.9214C69.7539 28.4048 70.3691 29.1299 70.3691 30.0967L72.4785 61.6714V63.8027C72.4785 64.8428 72.1782 65.4434 71.5776 65.6045H70.9404L70.0396 65.0112L70.3691 60.4629V59.5181C70.3691 50.7583 69.7539 42.9727 68.5234 36.1611H68.2378C67.0073 39.9697 65.689 46.6494 64.2827 56.2002L62.437 57.0791C61.3237 57.0791 60.6206 54.457 60.3276 49.2129C58.1011 42.46 56.6875 38.8125 56.0869 38.2705H55.7793L56.0869 42.8188V48.312C56.0869 61.0708 55.4717 67.4502 54.2412 67.4502H53.3403L53.0327 65.9121L54.2412 53.4536H53.9336L54.2412 53.168V49.2129C54.2412 39.5596 53.9409 34.0884 53.3403 32.7993C53.7358 31.8618 54.146 31.3638 54.5708 31.3052H55.4717C56.4824 31.3638 57.6982 34.396 59.1191 40.4019C60.1299 42.3208 61.2358 45.7705 62.437 50.751H63.3818L67.293 32.2061V31.3052L67.0293 29.4595C67.0293 28.6538 67.5273 28.251 68.5234 28.251V27.9214ZM81.0479 42.2915C82.9375 42.2915 84.2559 45.0015 85.0029 50.4214L84.6953 50.7949V52.5967C84.1826 61.9277 82.564 66.5933 79.8394 66.5933L79.5098 66.8569H79.2021C76.1699 66.1685 74.6538 62.3159 74.6538 55.2993C74.6538 46.6274 76.7852 42.2915 81.0479 42.2915ZM76.4995 53.8052C76.9536 60.8804 77.8545 64.418 79.2021 64.418H79.5098C81.2236 64.418 82.3369 60.7778 82.8496 53.4976V49.2129C82.8496 46.4883 81.9487 44.9868 80.147 44.7085C77.7153 45.4263 76.4995 48.4585 76.4995 53.8052ZM83.8164 37.7651H84.4536V38.3584C82.4175 49.5791 79.9858 59.1006 77.1587 66.9229C76.7339 66.9229 76.5215 67.8384 76.5215 69.6694L75.6865 70.2627L74.1045 69.9551V68.7246C77.0488 62.8506 79.7954 53.5342 82.3442 40.7754C82.3442 39.3691 82.835 38.3657 83.8164 37.7651ZM97.0879 32.4697C98.2305 32.4697 98.9336 32.9678 99.1973 33.9639L98.582 36.1172C99.0801 56.6689 99.5415 66.7031 99.9663 66.2197L98.9775 66.9448C98.1426 66.5786 97.6958 66.3955 97.6372 66.3955L97.3516 53.7173L97.0879 53.4097H96.7803C95.5498 61.9204 93.7188 66.1758 91.2871 66.1758H90.6938C88.2622 66.1758 87.0464 63.7441 87.0464 58.8809C87.0464 55.3506 88.7749 51.9009 92.2319 48.5317C95.0737 47.8726 96.4946 46.7666 96.4946 45.2139V40.9731L95.8794 33.9639C96.2603 33.0557 96.6631 32.5576 97.0879 32.4697ZM89.4854 57.6724V60.6826C89.4854 62.25 89.998 63.2754 91.0234 63.7588H91.2871C92.4883 63.7588 93.9092 59.2983 95.5498 50.3774L95.2861 50.0698H94.0776C91.0161 51.9302 89.4854 54.4644 89.4854 57.6724ZM136.067 27.2622C136.785 27.2622 138.001 27.9653 139.715 29.3716V30.5801H139.122V30.9097C137.496 29.8843 136.177 29.3716 135.167 29.3716H133.628C129.498 31.686 130.955 41.7349 138.001 59.5181L138.309 61.0122C138.309 65.0552 135.987 68.4097 131.343 71.0757L129.168 71.6689C126.15 70.8047 124.642 69.2739 124.642 67.0767C124.876 66.0952 125.169 65.6045 125.521 65.6045H126.158C126.817 68.2119 127.52 69.5156 128.267 69.5156C132.925 69.5156 135.569 66.6812 136.199 61.0122V59.5181C127.469 39.4497 126.714 28.7856 133.936 27.5259L136.067 27.2622ZM152.415 43.5439L153.008 44.1812L152.415 46.5981V47.543L152.679 49.9819C151.873 60.895 150.167 66.3516 147.559 66.3516C144.893 66.3516 142.959 61.1807 141.758 50.8389V49.0371C141.758 47.499 142.161 46.5981 142.967 46.3345H143.604L144.505 46.9277L144.175 49.0371V52.0474C144.175 56.0757 145.091 60.0381 146.922 63.9346H147.559C148.965 63.3633 149.866 59.5254 150.262 52.4209V49.3447C150.262 47.9092 150.064 46.7886 149.668 45.9829C149.668 44.6938 150.584 43.8809 152.415 43.5439ZM164.214 40.7095L164.544 41.061V41.6543C160.691 44.3789 158.765 47.2134 158.765 50.1577V50.7949C158.765 52.9482 160.494 55.9731 163.951 59.8696L164.214 61.1001C162.75 64.938 159.915 66.8569 155.711 66.8569C153.499 66.8569 152.393 66.0439 152.393 64.418L156.019 64.7476H157.249C160.091 64.0591 161.512 62.8433 161.512 61.1001V60.7705C161.512 60.2725 160.091 57.9507 157.249 53.8052L156.348 50.4214C156.348 46.7007 158.78 43.4634 163.643 40.7095H164.214ZM174.651 42.0498H175.596L176.497 42.687L176.167 47.1914C176.739 57.958 177.654 63.3413 178.914 63.3413H179.507V63.605C179.507 64.7183 179.104 65.4434 178.299 65.7803H177.068C176.263 65.7803 175.56 63.5464 174.959 59.0786H174.651C173.479 65.978 171.663 69.4277 169.202 69.4277C167.796 69.4277 167.093 67.2817 167.093 62.9897V59.6938C167.093 50.3628 168.799 45.0967 172.212 43.8955C172.784 43.8955 173.597 43.2803 174.651 42.0498ZM169.202 58.749V62.9897C169.202 65.231 169.502 66.3516 170.103 66.3516C171.421 66.3516 172.74 61.0928 174.058 50.5752V50.2456C173.912 47.4038 173.611 45.9829 173.157 45.9829H172.212C170.206 45.9829 169.202 50.2383 169.202 58.749ZM188.912 39.3252H189.175C191.578 39.3252 192.999 43.8662 193.438 52.9482V58.4414L193.768 61.7593L193.438 62.9897L193.768 65.7363L192.823 66.3076C191.827 66.0439 191.329 65.3408 191.329 64.1982V54.1567C191.329 47.0815 190.611 43.2437 189.175 42.6431H188.912C186.744 43.7563 185.418 48.2095 184.935 56.0024V64.5059L185.264 65.7363C184.839 66.9375 184.429 67.5381 184.034 67.5381C183.023 67.5381 182.408 67.1279 182.188 66.3076L182.518 58.1338L181.617 44.4448V42.6431L182.825 41.4346C183.631 41.7275 184.034 42.0278 184.034 42.3354L183.726 46.8838L184.034 47.1914H184.627C184.627 44.2178 186.055 41.5957 188.912 39.3252Z" fill="#EBCDD1"></path></svg>